Droid Devanagari-Bold.ufo
<glyph name="exclam" format="1">
  <advance width="782"/>
  <unicode hex="0021"/>
  <outline>
    <contour>
      <point x="213" y="1462" type="line"/>
      <point x="334" y="467" type="line"/>
      <point x="449" y="467" type="line"/>
      <point x="569" y="1462" type="line"/>
    </contour>
    <contour>
      <point x="346" y="311"/>
      <point x="304" y="301"/>
      <point x="274" y="276" type="curve" smooth="yes"/>
      <point x="244" y="251"/>
      <point x="225" y="210"/>
      <point x="225" y="147" type="curve" smooth="yes"/>
      <point x="225" y="86"/>
      <point x="244" y="45"/>
      <point x="274" y="20" type="curve" smooth="yes"/>
      <point x="304" y="-5"/>
      <point x="346" y="-16"/>
      <point x="393" y="-16" type="curve" smooth="yes"/>
      <point x="438" y="-16"/>
      <point x="480" y="-5"/>
      <point x="511" y="20" type="curve" smooth="yes"/>
      <point x="542" y="45"/>
      <point x="561" y="86"/>
      <point x="561" y="147" type="curve" smooth="yes"/>
      <point x="561" y="210"/>
      <point x="542" y="251"/>
      <point x="511" y="276" type="curve" smooth="yes"/>
      <point x="480" y="301"/>
      <point x="438" y="311"/>
      <point x="393" y="311" type="curve" smooth="yes"/>
    </contour>
  </outline>
</glyph>
<glyph name="period" format="1">
  <advance width="623"/>
  <unicode hex="002E"/>
  <outline>
    <contour>
      <point x="264" y="311"/>
      <point x="222" y="301"/>
      <point x="192" y="276" type="curve" smooth="yes"/>
      <point x="162" y="251"/>
      <point x="143" y="210"/>
      <point x="143" y="147" type="curve" smooth="yes"/>
      <point x="143" y="86"/>
      <point x="162" y="45"/>
      <point x="192" y="20" type="curve" smooth="yes"/>
      <point x="222" y="-5"/>
      <point x="264" y="-16"/>
      <point x="311" y="-16" type="curve" smooth="yes"/>
      <point x="356" y="-16"/>
      <point x="398" y="-5"/>
      <point x="429" y="20" type="curve" smooth="yes"/>
      <point x="460" y="45"/>
      <point x="479" y="86"/>
      <point x="479" y="147" type="curve" smooth="yes"/>
      <point x="479" y="210"/>
      <point x="460" y="251"/>
      <point x="429" y="276" type="curve" smooth="yes"/>
      <point x="398" y="301"/>
      <point x="356" y="311"/>
      <point x="311" y="311" type="curve" smooth="yes"/>
    </contour>
  </outline>
</glyph>
<glyph name="six" format="1">
  <advance width="1145"/>
  <unicode hex="0036"/>
  <outline>
    <contour>
      <point x="479" y="1483"/>
      <point x="332" y="1393"/>
      <point x="236" y="1248" type="curve" smooth="yes"/>
      <point x="139" y="1103"/>
      <point x="92" y="901"/>
      <point x="92" y="676" type="curve" smooth="yes"/>
      <point x="92" y="437"/>
      <point x="144" y="264"/>
      <point x="233" y="149" type="curve" smooth="yes"/>
      <point x="321" y="34"/>
      <point x="448" y="-20"/>
      <point x="600" y="-20" type="curve" smooth="yes"/>
      <point x="756" y="-20"/>
      <point x="874" y="30"/>
      <point x="954" y="117" type="curve" smooth="yes"/>
      <point x="1033" y="204"/>
      <point x="1073" y="326"/>
      <point x="1073" y="473" type="curve" smooth="yes"/>
      <point x="1073" y="606"/>
      <point x="1033" y="712"/>
      <point x="962" y="785" type="curve" smooth="yes"/>
      <point x="890" y="857"/>
      <point x="788" y="897"/>
      <point x="664" y="897" type="curve" smooth="yes"/>
      <point x="595" y="897"/>
      <point x="537" y="888"/>
      <point x="491" y="873" type="curve" smooth="yes"/>
      <point x="445" y="858"/>
      <point x="409" y="840"/>
      <point x="381" y="821" type="curve"/>
      <point x="389" y="994"/>
      <point x="417" y="1129"/>
      <point x="465" y="1221" type="curve" smooth="yes"/>
      <point x="512" y="1313"/>
      <point x="577" y="1362"/>
      <point x="657" y="1362" type="curve" smooth="yes"/>
      <point x="712" y="1362"/>
      <point x="746" y="1327"/>
      <point x="766" y="1276" type="curve" smooth="yes"/>
      <point x="786" y="1225"/>
      <point x="793" y="1159"/>
      <point x="793" y="1098" type="curve"/>
      <point x="884" y="1098"/>
      <point x="944" y="1117"/>
      <point x="983" y="1146" type="curve" smooth="yes"/>
      <point x="1022" y="1175"/>
      <point x="1038" y="1216"/>
      <point x="1038" y="1257" type="curve" smooth="yes"/>
      <point x="1038" y="1316"/>
      <point x="1013" y="1372"/>
      <point x="956" y="1414" type="curve" smooth="yes"/>
      <point x="899" y="1456"/>
      <point x="808" y="1483"/>
      <point x="676" y="1483" type="curve" smooth="yes"/>
    </contour>
    <contour>
      <point x="705" y="772"/>
      <point x="776" y="674"/>
      <point x="776" y="453" type="curve" smooth="yes"/>
      <point x="776" y="335"/>
      <point x="761" y="249"/>
      <point x="731" y="196" type="curve" smooth="yes"/>
      <point x="700" y="142"/>
      <point x="659" y="115"/>
      <point x="606" y="115" type="curve" smooth="yes"/>
      <point x="543" y="115"/>
      <point x="488" y="156"/>
      <point x="448" y="247" type="curve" smooth="yes"/>
      <point x="407" y="338"/>
      <point x="382" y="478"/>
      <point x="381" y="674" type="curve"/>
      <point x="398" y="698"/>
      <point x="432" y="722"/>
      <point x="470" y="741" type="curve" smooth="yes"/>
      <point x="508" y="760"/>
      <point x="551" y="772"/>
      <point x="588" y="772" type="curve" smooth="yes"/>
    </contour>
  </outline>
</glyph>
<glyph name="eight" format="1">
  <advance width="1145"/>
  <unicode hex="0038"/>
  <outline>
    <contour>
      <point x="408" y="1483"/>
      <point x="289" y="1437"/>
      <point x="214" y="1368" type="curve" smooth="yes"/>
      <point x="139" y="1299"/>
      <point x="109" y="1205"/>
      <point x="109" y="1110" type="curve" smooth="yes"/>
      <point x="109" y="950"/>
      <point x="199" y="834"/>
      <point x="362" y="739" type="curve"/>
      <point x="273" y="694"/>
      <point x="197" y="647"/>
      <point x="144" y="589" type="curve" smooth="yes"/>
      <point x="91" y="531"/>
      <point x="61" y="461"/>
      <point x="61" y="373" type="curve" smooth="yes"/>
      <point x="61" y="265"/>
      <point x="100" y="166"/>
      <point x="182" y="95" type="curve" smooth="yes"/>
      <point x="264" y="24"/>
      <point x="388" y="-20"/>
      <point x="559" y="-20" type="curve" smooth="yes"/>
      <point x="724" y="-20"/>
      <point x="855" y="18"/>
      <point x="945" y="87" type="curve" smooth="yes"/>
      <point x="1035" y="156"/>
      <point x="1083" y="258"/>
      <point x="1083" y="387" type="curve" smooth="yes"/>
      <point x="1083" y="470"/>
      <point x="1060" y="542"/>
      <point x="1006" y="608" type="curve" smooth="yes"/>
      <point x="952" y="674"/>
      <point x="866" y="733"/>
      <point x="743" y="793" type="curve"/>
      <point x="828" y="837"/>
      <point x="897" y="879"/>
      <point x="945" y="931" type="curve" smooth="yes"/>
      <point x="993" y="982"/>
      <point x="1020" y="1043"/>
      <point x="1020" y="1124" type="curve" smooth="yes"/>
      <point x="1020" y="1228"/>
      <point x="983" y="1317"/>
      <point x="910" y="1381" type="curve" smooth="yes"/>
      <point x="837" y="1445"/>
      <point x="728" y="1483"/>
      <point x="584" y="1483" type="curve" smooth="yes"/>
    </contour>
    <contour>
      <point x="605" y="609"/>
      <point x="680" y="566"/>
      <point x="729" y="519" type="curve" smooth="yes"/>
      <point x="777" y="471"/>
      <point x="799" y="419"/>
      <point x="799" y="352" type="curve" smooth="yes"/>
      <point x="799" y="277"/>
      <point x="777" y="213"/>
      <point x="737" y="168" type="curve" smooth="yes"/>
      <point x="697" y="123"/>
      <point x="640" y="96"/>
      <point x="569" y="96" type="curve" smooth="yes"/>
      <point x="500" y="96"/>
      <point x="442" y="123"/>
      <point x="402" y="171" type="curve" smooth="yes"/>
      <point x="361" y="218"/>
      <point x="338" y="285"/>
      <point x="338" y="365" type="curve" smooth="yes"/>
      <point x="338" y="437"/>
      <point x="356" y="495"/>
      <point x="385" y="543" type="curve" smooth="yes"/>
      <point x="413" y="590"/>
      <point x="455" y="628"/>
      <point x="500" y="657" type="curve"/>
    </contour>
    <contour>
      <point x="634" y="1364"/>
      <point x="681" y="1334"/>
      <point x="713" y="1290" type="curve" smooth="yes"/>
      <point x="745" y="1246"/>
      <point x="762" y="1187"/>
      <point x="762" y="1128" type="curve" smooth="yes"/>
      <point x="762" y="1060"/>
      <point x="751" y="1009"/>
      <point x="728" y="966" type="curve" smooth="yes"/>
      <point x="704" y="923"/>
      <point x="669" y="891"/>
      <point x="618" y="862" type="curve"/>
      <point x="546" y="895"/>
      <point x="491" y="927"/>
      <point x="454" y="970" type="curve" smooth="yes"/>
      <point x="417" y="1013"/>
      <point x="397" y="1064"/>
      <point x="397" y="1135" type="curve" smooth="yes"/>
      <point x="397" y="1200"/>
      <point x="413" y="1258"/>
      <point x="442" y="1299" type="curve" smooth="yes"/>
      <point x="471" y="1339"/>
      <point x="515" y="1364"/>
      <point x="571" y="1364" type="curve" smooth="yes"/>
    </contour>
  </outline>
</glyph>
<glyph name="nine" format="1">
  <advance width="1145"/>
  <unicode hex="0039"/>
  <outline>
    <contour>
      <point x="394" y="1483"/>
      <point x="277" y="1433"/>
      <point x="197" y="1346" type="curve" smooth="yes"/>
      <point x="116" y="1258"/>
      <point x="72" y="1135"/>
      <point x="72" y="987" type="curve" smooth="yes"/>
      <point x="72" y="850"/>
      <point x="113" y="743"/>
      <point x="185" y="672" type="curve" smooth="yes"/>
      <point x="256" y="600"/>
      <point x="356" y="563"/>
      <point x="473" y="563" type="curve" smooth="yes"/>
      <point x="544" y="563"/>
      <point x="603" y="578"/>
      <point x="652" y="603" type="curve" smooth="yes"/>
      <point x="701" y="628"/>
      <point x="740" y="662"/>
      <point x="772" y="702" type="curve"/>
      <point x="765" y="505"/>
      <point x="737" y="357"/>
      <point x="688" y="258" type="curve" smooth="yes"/>
      <point x="638" y="159"/>
      <point x="567" y="109"/>
      <point x="475" y="109" type="curve" smooth="yes"/>
      <point x="407" y="109"/>
      <point x="355" y="133"/>
      <point x="316" y="173" type="curve" smooth="yes"/>
      <point x="276" y="212"/>
      <point x="249" y="267"/>
      <point x="229" y="328" type="curve"/>
      <point x="160" y="313"/>
      <point x="129" y="271"/>
      <point x="129" y="211" type="curve" smooth="yes"/>
      <point x="129" y="152"/>
      <point x="151" y="95"/>
      <point x="204" y="52" type="curve" smooth="yes"/>
      <point x="257" y="8"/>
      <point x="341" y="-20"/>
      <point x="465" y="-20" type="curve" smooth="yes"/>
      <point x="676" y="-20"/>
      <point x="823" y="71"/>
      <point x="917" y="219" type="curve" smooth="yes"/>
      <point x="1011" y="366"/>
      <point x="1053" y="570"/>
      <point x="1053" y="795" type="curve" smooth="yes"/>
      <point x="1053" y="1035"/>
      <point x="1000" y="1207"/>
      <point x="909" y="1319" type="curve" smooth="yes"/>
      <point x="817" y="1431"/>
      <point x="689" y="1483"/>
      <point x="541" y="1483" type="curve" smooth="yes"/>
    </contour>
    <contour>
      <point x="617" y="1346"/>
      <point x="672" y="1308"/>
      <point x="710" y="1228" type="curve" smooth="yes"/>
      <point x="748" y="1147"/>
      <point x="771" y="1023"/>
      <point x="772" y="848" type="curve"/>
      <point x="731" y="765"/>
      <point x="660" y="711"/>
      <point x="561" y="711" type="curve" smooth="yes"/>
      <point x="433" y="711"/>
      <point x="369" y="810"/>
      <point x="369" y="999" type="curve" smooth="yes"/>
      <point x="369" y="1231"/>
      <point x="436" y="1346"/>
      <point x="553" y="1346" type="curve" smooth="yes"/>
    </contour>
  </outline>
</glyph>
<glyph name="semicolon" format="1">
  <advance width="602"/>
  <unicode hex="003B"/>
  <outline>
    <contour>
      <point x="186" y="311"/>
      <point x="123" y="262"/>
      <point x="123" y="170" type="curve" smooth="yes"/>
      <point x="123" y="143"/>
      <point x="127" y="120"/>
      <point x="134" y="103" type="curve" smooth="yes"/>
      <point x="149" y="67"/>
      <point x="172" y="44"/>
      <point x="198" y="29" type="curve"/>
      <point x="234" y="6" type="line" smooth="yes"/>
      <point x="256" y="-9"/>
      <point x="272" y="-24"/>
      <point x="272" y="-49" type="curve" smooth="yes"/>
      <point x="272" y="-89"/>
      <point x="257" y="-118"/>
      <point x="227" y="-142" type="curve" smooth="yes"/>
      <point x="197" y="-167"/>
      <point x="152" y="-188"/>
      <point x="92" y="-209" type="curve"/>
      <point x="92" y="-315" type="line"/>
      <point x="225" y="-279"/>
      <point x="316" y="-222"/>
      <point x="375" y="-153" type="curve" smooth="yes"/>
      <point x="434" y="-84"/>
      <point x="459" y="-1"/>
      <point x="459" y="86" type="curve" smooth="yes"/>
      <point x="459" y="226"/>
      <point x="386" y="311"/>
      <point x="270" y="311" type="curve" smooth="yes"/>
    </contour>
    <contour>
      <point x="264" y="1116"/>
      <point x="222" y="1106"/>
      <point x="192" y="1081" type="curve" smooth="yes"/>
      <point x="162" y="1056"/>
      <point x="143" y="1015"/>
      <point x="143" y="952" type="curve" smooth="yes"/>
      <point x="143" y="891"/>
      <point x="162" y="849"/>
      <point x="192" y="824" type="curve" smooth="yes"/>
      <point x="222" y="799"/>
      <point x="264" y="788"/>
      <point x="311" y="788" type="curve" smooth="yes"/>
      <point x="356" y="788"/>
      <point x="398" y="799"/>
      <point x="429" y="824" type="curve" smooth="yes"/>
      <point x="460" y="849"/>
      <point x="479" y="891"/>
      <point x="479" y="952" type="curve" smooth="yes"/>
      <point x="479" y="1015"/>
      <point x="460" y="1056"/>
      <point x="429" y="1081" type="curve" smooth="yes"/>
      <point x="398" y="1106"/>
      <point x="356" y="1116"/>
      <point x="311" y="1116" type="curve" smooth="yes"/>
    </contour>
  </outline>
</glyph>
<glyph name="question" format="1">
  <advance width="1126"/>
  <unicode hex="003F"/>
  <outline>
    <contour>
      <point x="361" y="1483"/>
      <point x="253" y="1457"/>
      <point x="182" y="1414" type="curve" smooth="yes"/>
      <point x="110" y="1371"/>
      <point x="76" y="1312"/>
      <point x="76" y="1245" type="curve" smooth="yes"/>
      <point x="76" y="1197"/>
      <point x="106" y="1161"/>
      <point x="158" y="1138" type="curve" smooth="yes"/>
      <point x="209" y="1114"/>
      <point x="281" y="1102"/>
      <point x="365" y="1102" type="curve"/>
      <point x="365" y="1171"/>
      <point x="376" y="1236"/>
      <point x="401" y="1283" type="curve" smooth="yes"/>
      <point x="426" y="1330"/>
      <point x="467" y="1360"/>
      <point x="528" y="1360" type="curve" smooth="yes"/>
      <point x="584" y="1360"/>
      <point x="625" y="1338"/>
      <point x="651" y="1299" type="curve" smooth="yes"/>
      <point x="677" y="1259"/>
      <point x="688" y="1204"/>
      <point x="688" y="1139" type="curve" smooth="yes"/>
      <point x="688" y="1058"/>
      <point x="675" y="976"/>
      <point x="632" y="904" type="curve" smooth="yes"/>
      <point x="588" y="831"/>
      <point x="516" y="766"/>
      <point x="399" y="719" type="curve"/>
      <point x="440" y="467" type="line"/>
      <point x="565" y="467" type="line"/>
      <point x="606" y="653" type="line"/>
      <point x="742" y="709"/>
      <point x="844" y="768"/>
      <point x="912" y="840" type="curve" smooth="yes"/>
      <point x="980" y="912"/>
      <point x="1014" y="997"/>
      <point x="1014" y="1106" type="curve" smooth="yes"/>
      <point x="1014" y="1225"/>
      <point x="960" y="1319"/>
      <point x="871" y="1384" type="curve" smooth="yes"/>
      <point x="782" y="1448"/>
      <point x="656" y="1483"/>
      <point x="512" y="1483" type="curve" smooth="yes"/>
    </contour>
    <contour>
      <point x="453" y="311"/>
      <point x="411" y="301"/>
      <point x="381" y="276" type="curve" smooth="yes"/>
      <point x="351" y="251"/>
      <point x="332" y="210"/>
      <point x="332" y="147" type="curve" smooth="yes"/>
      <point x="332" y="86"/>
      <point x="351" y="45"/>
      <point x="381" y="20" type="curve" smooth="yes"/>
      <point x="411" y="-5"/>
      <point x="453" y="-16"/>
      <point x="500" y="-16" type="curve" smooth="yes"/>
      <point x="545" y="-16"/>
      <point x="587" y="-5"/>
      <point x="618" y="20" type="curve" smooth="yes"/>
      <point x="649" y="45"/>
      <point x="668" y="86"/>
      <point x="668" y="147" type="curve" smooth="yes"/>
      <point x="668" y="210"/>
      <point x="649" y="251"/>
      <point x="618" y="276" type="curve" smooth="yes"/>
      <point x="587" y="301"/>
      <point x="545" y="311"/>
      <point x="500" y="311" type="curve" smooth="yes"/>
    </contour>
  </outline>
</glyph>
<glyph name="at" format="1">
  <advance width="1886"/>
  <unicode hex="0040"/>
  <outline>
    <contour>
      <point x="896" y="1462"/>
      <point x="724" y="1417"/>
      <point x="579" y="1335" type="curve" smooth="yes"/>
      <point x="434" y="1253"/>
      <point x="315" y="1136"/>
      <point x="233" y="994" type="curve" smooth="yes"/>
      <point x="151" y="852"/>
      <point x="104" y="683"/>
      <point x="104" y="500" type="curve" smooth="yes"/>
      <point x="104" y="323"/>
      <point x="147" y="176"/>
      <point x="221" y="59" type="curve" smooth="yes"/>
      <point x="295" y="-58"/>
      <point x="401" y="-145"/>
      <point x="527" y="-204" type="curve" smooth="yes"/>
      <point x="653" y="-263"/>
      <point x="798" y="-291"/>
      <point x="954" y="-291" type="curve" smooth="yes"/>
      <point x="1085" y="-291"/>
      <point x="1206" y="-268"/>
      <point x="1314" y="-232" type="curve" smooth="yes"/>
      <point x="1421" y="-196"/>
      <point x="1513" y="-147"/>
      <point x="1585" y="-92" type="curve"/>
      <point x="1536" y="-14" type="line"/>
      <point x="1472" y="-57"/>
      <point x="1390" y="-100"/>
      <point x="1295" y="-132" type="curve" smooth="yes"/>
      <point x="1200" y="-164"/>
      <point x="1094" y="-186"/>
      <point x="983" y="-186" type="curve" smooth="yes"/>
      <point x="799" y="-186"/>
      <point x="629" y="-139"/>
      <point x="506" y="-31" type="curve" smooth="yes"/>
      <point x="382" y="77"/>
      <point x="305" y="246"/>
      <point x="305" y="487" type="curve" smooth="yes"/>
      <point x="305" y="667"/>
      <point x="346" y="824"/>
      <point x="417" y="953" type="curve" smooth="yes"/>
      <point x="488" y="1081"/>
      <point x="586" y="1183"/>
      <point x="700" y="1252" type="curve" smooth="yes"/>
      <point x="814" y="1321"/>
      <point x="942" y="1358"/>
      <point x="1071" y="1358" type="curve" smooth="yes"/>
      <point x="1236" y="1358"/>
      <point x="1379" y="1311"/>
      <point x="1480" y="1217" type="curve" smooth="yes"/>
      <point x="1580" y="1123"/>
      <point x="1640" y="982"/>
      <point x="1640" y="795" type="curve" smooth="yes"/>
      <point x="1640" y="627"/>
      <point x="1608" y="497"/>
      <point x="1563" y="410" type="curve" smooth="yes"/>
      <point x="1518" y="322"/>
      <point x="1460" y="276"/>
      <point x="1405" y="276" type="curve" smooth="yes"/>
      <point x="1382" y="276"/>
      <point x="1358" y="282"/>
      <point x="1339" y="303" type="curve" smooth="yes"/>
      <point x="1320" y="323"/>
      <point x="1307" y="358"/>
      <point x="1307" y="414" type="curve" smooth="yes"/>
      <point x="1307" y="430"/>
      <point x="1309" y="456"/>
      <point x="1312" y="483" type="curve" smooth="yes"/>
      <point x="1315" y="510"/>
      <point x="1318" y="537"/>
      <point x="1321" y="553" type="curve" smooth="yes"/>
      <point x="1407" y="1065" type="line"/>
      <point x="1358" y="1065" type="line"/>
      <point x="1272" y="1022" type="line"/>
      <point x="1229" y="1055"/>
      <point x="1162" y="1083"/>
      <point x="1067" y="1083" type="curve" smooth="yes"/>
      <point x="935" y="1083"/>
      <point x="830" y="1043"/>
      <point x="748" y="983" type="curve" smooth="yes"/>
      <point x="666" y="922"/>
      <point x="609" y="839"/>
      <point x="571" y="755" type="curve" smooth="yes"/>
      <point x="533" y="670"/>
      <point x="516" y="581"/>
      <point x="516" y="508" type="curve" smooth="yes"/>
      <point x="516" y="388"/>
      <point x="553" y="300"/>
      <point x="613" y="243" type="curve" smooth="yes"/>
      <point x="672" y="186"/>
      <point x="753" y="158"/>
      <point x="838" y="158" type="curve" smooth="yes"/>
      <point x="910" y="158"/>
      <point x="966" y="179"/>
      <point x="1011" y="214" type="curve" smooth="yes"/>
      <point x="1056" y="249"/>
      <point x="1092" y="297"/>
      <point x="1120" y="350" type="curve"/>
      <point x="1133" y="350" type="line"/>
      <point x="1178" y="213"/>
      <point x="1263" y="158"/>
      <point x="1384" y="158" type="curve" smooth="yes"/>
      <point x="1487" y="158"/>
      <point x="1592" y="218"/>
      <point x="1672" y="328" type="curve" smooth="yes"/>
      <point x="1752" y="438"/>
      <point x="1806" y="599"/>
      <point x="1806" y="803" type="curve" smooth="yes"/>
      <point x="1806" y="988"/>
      <point x="1744" y="1154"/>
      <point x="1624" y="1272" type="curve" smooth="yes"/>
      <point x="1503" y="1390"/>
      <point x="1322" y="1462"/>
      <point x="1085" y="1462" type="curve" smooth="yes"/>
    </contour>
    <contour>
      <point x="1080" y="993"/>
      <point x="1103" y="989"/>
      <point x="1123" y="979" type="curve" smooth="yes"/>
      <point x="1143" y="969"/>
      <point x="1159" y="955"/>
      <point x="1167" y="936" type="curve"/>
      <point x="1085" y="518" type="line" smooth="yes"/>
      <point x="1074" y="458"/>
      <point x="1056" y="399"/>
      <point x="1028" y="353" type="curve" smooth="yes"/>
      <point x="999" y="307"/>
      <point x="958" y="276"/>
      <point x="899" y="276" type="curve" smooth="yes"/>
      <point x="820" y="276"/>
      <point x="768" y="351"/>
      <point x="768" y="487" type="curve" smooth="yes"/>
      <point x="768" y="542"/>
      <point x="777" y="616"/>
      <point x="798" y="691" type="curve" smooth="yes"/>
      <point x="818" y="766"/>
      <point x="848" y="842"/>
      <point x="892" y="899" type="curve" smooth="yes"/>
      <point x="935" y="955"/>
      <point x="990" y="993"/>
      <point x="1059" y="993" type="curve" smooth="yes"/>
    </contour>
  </outline>
</glyph>
<glyph name="asciicircum" format="1">
  <advance width="1145"/>
  <unicode hex="005E"/>
  <outline>
    <contour>
      <point x="526" y="1462" type="line"/>
      <point x="94" y="537" type="line"/>
      <point x="254" y="537" type="line"/>
      <point x="569" y="1239" type="line"/>
      <point x="889" y="537" type="line"/>
      <point x="1049" y="537" type="line"/>
      <point x="614" y="1462" type="line"/>
    </contour>
  </outline>
</glyph>
<glyph name="braceright" format="1">
  <advance width="905"/>
  <unicode hex="007D"/>
  <outline>
    <contour>
      <point x="61" y="1556" type="line"/>
      <point x="61" y="1448" type="line"/>
      <point x="141" y="1448" type="line" smooth="yes"/>
      <point x="200" y="1448"/>
      <point x="236" y="1430"/>
      <point x="258" y="1397" type="curve" smooth="yes"/>
      <point x="280" y="1364"/>
      <point x="287" y="1313"/>
      <point x="287" y="1249" type="curve" smooth="yes"/>
      <point x="287" y="901" type="line" smooth="yes"/>
      <point x="287" y="777"/>
      <point x="353" y="698"/>
      <point x="512" y="662" type="curve"/>
      <point x="512" y="645" type="line"/>
      <point x="355" y="606"/>
      <point x="287" y="527"/>
      <point x="287" y="403" type="curve" smooth="yes"/>
      <point x="287" y="53" type="line" smooth="yes"/>
      <point x="287" y="-11"/>
      <point x="280" y="-61"/>
      <point x="258" y="-95" type="curve" smooth="yes"/>
      <point x="236" y="-129"/>
      <point x="200" y="-147"/>
      <point x="141" y="-147" type="curve" smooth="yes"/>
      <point x="61" y="-147" type="line"/>
      <point x="61" y="-256" type="line"/>
      <point x="256" y="-256" type="line" smooth="yes"/>
      <point x="371" y="-256"/>
      <point x="458" y="-227"/>
      <point x="517" y="-174" type="curve" smooth="yes"/>
      <point x="576" y="-122"/>
      <point x="606" y="-46"/>
      <point x="606" y="47" type="curve" smooth="yes"/>
      <point x="606" y="397" type="line" smooth="yes"/>
      <point x="606" y="476"/>
      <point x="632" y="522"/>
      <point x="675" y="550" type="curve" smooth="yes"/>
      <point x="718" y="578"/>
      <point x="777" y="587"/>
      <point x="844" y="590" type="curve"/>
      <point x="844" y="715" type="line"/>
      <point x="777" y="718"/>
      <point x="718" y="726"/>
      <point x="675" y="754" type="curve" smooth="yes"/>
      <point x="632" y="782"/>
      <point x="606" y="829"/>
      <point x="606" y="905" type="curve" smooth="yes"/>
      <point x="606" y="1257" type="line" smooth="yes"/>
      <point x="606" y="1449"/>
      <point x="487" y="1556"/>
      <point x="256" y="1556" type="curve" smooth="yes"/>
    </contour>
  </outline>
</glyph>
<glyph name="candrabindudeva" format="1">
  <advance width="0"/>
  <unicode hex="0901"/>
  <outline>
    <contour>
      <point x="-435" y="1966"/>
      <point x="-490" y="1912"/>
      <point x="-490" y="1846" type="curve" smooth="yes"/>
      <point x="-490" y="1780"/>
      <point x="-435" y="1725"/>
      <point x="-368" y="1725" type="curve" smooth="yes"/>
      <point x="-302" y="1725"/>
      <point x="-248" y="1780"/>
      <point x="-248" y="1846" type="curve" smooth="yes"/>
      <point x="-248" y="1912"/>
      <point x="-302" y="1966"/>
      <point x="-368" y="1966" type="curve" smooth="yes"/>
    </contour>
    <component base="ecandrasigndeva"/>
  </outline>
</glyph>
<glyph name="aadeva" format="1">
  <advance width="2153"/>
  <unicode hex="0906"/>
  <outline>
    <contour>
      <point x="1464" y="1330" type="line"/>
      <point x="1447" y="1307" type="line"/>
      <point x="1500" y="1137" type="line"/>
      <point x="1706" y="1137" type="line"/>
      <point x="1706" y="-21" type="line"/>
      <point x="1924" y="-57" type="line"/>
      <point x="1946" y="-39" type="line"/>
      <point x="1946" y="1137" type="line"/>
      <point x="2189" y="1137" type="line"/>
      <point x="2206" y="1160" type="line"/>
      <point x="2153" y="1330" type="line"/>
    </contour>
    <component base="adeva"/>
  </outline>
</glyph>
<glyph name="iideva" format="1">
  <advance width="1076"/>
  <unicode hex="0908"/>
  <outline>
    <contour>
      <point x="592" y="1854"/>
      <point x="490" y="1740"/>
      <point x="490" y="1593" type="curve" smooth="yes"/>
      <point x="490" y="1455"/>
      <point x="581" y="1322"/>
      <point x="785" y="1204" type="curve"/>
      <point x="915" y="1226" type="line"/>
      <point x="780" y="1297"/>
      <point x="708" y="1386"/>
      <point x="708" y="1485" type="curve" smooth="yes"/>
      <point x="708" y="1579"/>
      <point x="772" y="1655"/>
      <point x="882" y="1655" type="curve" smooth="yes"/>
      <point x="936" y="1655"/>
      <point x="1000" y="1637"/>
      <point x="1057" y="1588" type="curve"/>
      <point x="1060" y="1598"/>
      <point x="1061" y="1608"/>
      <point x="1061" y="1619" type="curve" smooth="yes"/>
      <point x="1061" y="1738"/>
      <point x="943" y="1854"/>
      <point x="767" y="1854" type="curve" smooth="yes"/>
    </contour>
    <component base="ideva"/>
  </outline>
</glyph>
<glyph name="rvocalicdeva" format="1">
  <advance width="1771"/>
  <unicode hex="090B"/>
  <outline>
    <contour>
      <point x="-36" y="1330" type="line"/>
      <point x="-53" y="1307" type="line"/>
      <point x="0" y="1137" type="line"/>
      <point x="794" y="1137" type="line"/>
      <point x="794" y="770" type="line"/>
      <point x="784" y="766" type="line"/>
      <point x="528" y="969"/>
      <point x="433" y="1019"/>
      <point x="321" y="1019" type="curve" smooth="yes"/>
      <point x="176" y="1019"/>
      <point x="94" y="931"/>
      <point x="94" y="859" type="curve" smooth="yes"/>
      <point x="94" y="787"/>
      <point x="162" y="723"/>
      <point x="274" y="665" type="curve"/>
      <point x="324" y="731"/>
      <point x="403" y="779"/>
      <point x="476" y="779" type="curve" smooth="yes"/>
      <point x="526" y="779"/>
      <point x="561" y="774"/>
      <point x="712" y="668" type="curve"/>
      <point x="534" y="551"/>
      <point x="376" y="425"/>
      <point x="231" y="296" type="curve"/>
      <point x="231" y="268" type="line"/>
      <point x="428" y="98" type="line"/>
      <point x="540" y="201"/>
      <point x="657" y="302"/>
      <point x="784" y="398" type="curve"/>
      <point x="794" y="393" type="line"/>
      <point x="794" y="-21" type="line"/>
      <point x="1012" y="-57" type="line"/>
      <point x="1034" y="-39" type="line"/>
      <point x="1034" y="507" type="line"/>
      <point x="1166" y="512"/>
      <point x="1289" y="549"/>
      <point x="1382" y="603" type="curve"/>
      <point x="1447" y="509"/>
      <point x="1458" y="471"/>
      <point x="1458" y="421" type="curve" smooth="yes"/>
      <point x="1458" y="338"/>
      <point x="1362" y="270"/>
      <point x="1240" y="270" type="curve"/>
      <point x="1258" y="152"/>
      <point x="1346" y="76"/>
      <point x="1466" y="76" type="curve" smooth="yes"/>
      <point x="1582" y="76"/>
      <point x="1668" y="175"/>
      <point x="1668" y="294" type="curve" smooth="yes"/>
      <point x="1668" y="402"/>
      <point x="1614" y="507"/>
      <point x="1480" y="675" type="curve"/>
      <point x="1529" y="724"/>
      <point x="1557" y="778"/>
      <point x="1557" y="832" type="curve" smooth="yes"/>
      <point x="1557" y="943"/>
      <point x="1455" y="1055"/>
      <point x="1336" y="1055" type="curve" smooth="yes"/>
      <point x="1226" y="1055"/>
      <point x="1193" y="977"/>
      <point x="1193" y="924" type="curve" smooth="yes"/>
      <point x="1193" y="889"/>
      <point x="1202" y="855"/>
      <point x="1234" y="807" type="curve"/>
      <point x="1174" y="766"/>
      <point x="1109" y="739"/>
      <point x="1034" y="724" type="curve"/>
      <point x="1034" y="1137" type="line"/>
      <point x="1807" y="1137" type="line"/>
      <point x="1824" y="1160" type="line"/>
      <point x="1771" y="1330" type="line"/>
    </contour>
  </outline>
</glyph>
<glyph name="lvocalicdeva" format="1">
  <advance width="1491"/>
  <unicode hex="090C"/>
  <outline>
    <contour>
      <point x="-36" y="1330" type="line"/>
      <point x="-53" y="1307" type="line"/>
      <point x="0" y="1137" type="line"/>
      <point x="924" y="1137" type="line"/>
      <point x="924" y="900" type="line"/>
      <point x="851" y="883"/>
      <point x="778" y="840"/>
      <point x="713" y="770" type="curve"/>
      <point x="596" y="881"/>
      <point x="491" y="924"/>
      <point x="386" y="924" type="curve" smooth="yes"/>
      <point x="207" y="924"/>
      <point x="102" y="800"/>
      <point x="102" y="623" type="curve" smooth="yes"/>
      <point x="102" y="324"/>
      <point x="399" y="-48"/>
      <point x="561" y="-48" type="curve" smooth="yes"/>
      <point x="612" y="-48"/>
      <point x="643" y="-12"/>
      <point x="651" y="34" type="curve"/>
      <point x="451" y="173"/>
      <point x="338" y="370"/>
      <point x="338" y="514" type="curve" smooth="yes"/>
      <point x="338" y="624"/>
      <point x="404" y="708"/>
      <point x="505" y="708" type="curve" smooth="yes"/>
      <point x="545" y="708"/>
      <point x="591" y="695"/>
      <point x="636" y="666" type="curve"/>
      <point x="611" y="624"/>
      <point x="588" y="576"/>
      <point x="568" y="522" type="curve"/>
      <point x="770" y="385" type="line"/>
      <point x="797" y="394" type="line"/>
      <point x="888" y="607"/>
      <point x="1016" y="691"/>
      <point x="1113" y="691" type="curve" smooth="yes"/>
      <point x="1163" y="691"/>
      <point x="1198" y="668"/>
      <point x="1198" y="610" type="curve" smooth="yes"/>
      <point x="1198" y="533"/>
      <point x="1137" y="447"/>
      <point x="1038" y="333" type="curve" smooth="yes"/>
      <point x="975" y="260"/>
      <point x="876" y="156"/>
      <point x="876" y="53" type="curve" smooth="yes"/>
      <point x="876" y="-88"/>
      <point x="1063" y="-250"/>
      <point x="1255" y="-250" type="curve" smooth="yes"/>
      <point x="1393" y="-250"/>
      <point x="1496" y="-167"/>
      <point x="1496" y="-86" type="curve" smooth="yes"/>
      <point x="1496" y="-22"/>
      <point x="1430" y="59"/>
      <point x="1331" y="87" type="curve"/>
      <point x="1275" y="-11"/>
      <point x="1170" y="-54"/>
      <point x="1119" y="-54" type="curve" smooth="yes"/>
      <point x="1089" y="-54"/>
      <point x="1075" y="-39"/>
      <point x="1075" y="-16" type="curve" smooth="yes"/>
      <point x="1075" y="36"/>
      <point x="1147" y="74"/>
      <point x="1275" y="230" type="curve" smooth="yes"/>
      <point x="1370" y="346"/>
      <point x="1397" y="411"/>
      <point x="1397" y="497" type="curve" smooth="yes"/>
      <point x="1397" y="669"/>
      <point x="1289" y="811"/>
      <point x="1154" y="874" type="curve"/>
      <point x="1154" y="1137" type="line"/>
      <point x="1527" y="1137" type="line"/>
      <point x="1544" y="1160" type="line"/>
      <point x="1491" y="1330" type="line"/>
    </contour>
  </outline>
</glyph>
<glyph name="aideva" format="1">
  <advance width="1206"/>
  <unicode hex="0910"/>
  <outline>
    <contour>
      <point x="65" y="1932"/>
      <point x="10" y="1861"/>
      <point x="10" y="1793" type="curve" smooth="yes"/>
      <point x="10" y="1711"/>
      <point x="90" y="1624"/>
      <point x="209" y="1588" type="curve"/>
      <point x="236" y="1627"/>
      <point x="283" y="1658"/>
      <point x="349" y="1658" type="curve" smooth="yes"/>
      <point x="453" y="1658"/>
      <point x="540" y="1592"/>
      <point x="840" y="1210" type="curve"/>
      <point x="975" y="1249" type="line"/>
      <point x="574" y="1780"/>
      <point x="387" y="1932"/>
      <point x="196" y="1932" type="curve" smooth="yes"/>
    </contour>
    <component base="edeva"/>
  </outline>
</glyph>
<glyph name="odeva" format="1">
  <advance width="2153"/>
  <unicode hex="0913"/>
  <outline>
    <contour>
      <point x="1023" y="1932"/>
      <point x="968" y="1861"/>
      <point x="968" y="1793" type="curve" smooth="yes"/>
      <point x="968" y="1711"/>
      <point x="1048" y="1624"/>
      <point x="1167" y="1588" type="curve"/>
      <point x="1194" y="1627"/>
      <point x="1241" y="1658"/>
      <point x="1307" y="1658" type="curve" smooth="yes"/>
      <point x="1415" y="1658"/>
      <point x="1506" y="1592"/>
      <point x="1818" y="1210" type="curve"/>
      <point x="1953" y="1249" type="line"/>
      <point x="1542" y="1780"/>
      <point x="1349" y="1932"/>
      <point x="1154" y="1932" type="curve" smooth="yes"/>
    </contour>
    <component base="aadeva"/>
  </outline>
</glyph>
<glyph name="audeva" format="1">
  <advance width="2150"/>
  <unicode hex="0914"/>
  <outline>
    <contour>
      <point x="1311" y="2032"/>
      <point x="1265" y="1973"/>
      <point x="1265" y="1911" type="curve" smooth="yes"/>
      <point x="1265" y="1849"/>
      <point x="1312" y="1781"/>
      <point x="1438" y="1731" type="curve"/>
      <point x="1459" y="1755"/>
      <point x="1489" y="1774"/>
      <point x="1525" y="1774" type="curve" smooth="yes"/>
      <point x="1584" y="1774"/>
      <point x="1637" y="1716"/>
      <point x="1748" y="1427" type="curve"/>
      <point x="1511" y="1624"/>
      <point x="1280" y="1742"/>
      <point x="1148" y="1742" type="curve" smooth="yes"/>
      <point x="1069" y="1742"/>
      <point x="991" y="1700"/>
      <point x="991" y="1612" type="curve" smooth="yes"/>
      <point x="991" y="1534"/>
      <point x="1052" y="1463"/>
      <point x="1187" y="1424" type="curve"/>
      <point x="1212" y="1470"/>
      <point x="1256" y="1497"/>
      <point x="1321" y="1497" type="curve" smooth="yes"/>
      <point x="1423" y="1497"/>
      <point x="1634" y="1390"/>
      <point x="1818" y="1210" type="curve"/>
      <point x="1827" y="1213" type="line"/>
      <point x="1828" y="1210" type="line"/>
      <point x="1943" y="1249" type="line"/>
      <point x="1776" y="1836"/>
      <point x="1600" y="2032"/>
      <point x="1413" y="2032" type="curve" smooth="yes"/>
    </contour>
    <component base="aadeva"/>
  </outline>
</glyph>
<glyph name="cadeva" format="1">
  <advance width="1381"/>
  <unicode hex="091A"/>
  <outline>
    <contour>
      <point x="-36" y="1330" type="line"/>
      <point x="-53" y="1307" type="line"/>
      <point x="0" y="1137" type="line"/>
      <point x="954" y="1137" type="line"/>
      <point x="954" y="650" type="line" smooth="yes"/>
      <point x="954" y="513"/>
      <point x="807" y="393"/>
      <point x="651" y="393" type="curve" smooth="yes"/>
      <point x="549" y="393"/>
      <point x="491" y="445"/>
      <point x="491" y="526" type="curve" smooth="yes"/>
      <point x="491" y="644"/>
      <point x="612" y="760"/>
      <point x="801" y="760" type="curve" smooth="yes"/>
      <point x="832" y="760" type="line"/>
      <point x="849" y="783" type="line"/>
      <point x="796" y="953" type="line"/>
      <point x="82" y="953" type="line"/>
      <point x="65" y="930" type="line"/>
      <point x="118" y="760" type="line"/>
      <point x="306" y="760" type="line"/>
      <point x="311" y="751" type="line"/>
      <point x="291" y="708"/>
      <point x="279" y="661"/>
      <point x="279" y="612" type="curve" smooth="yes"/>
      <point x="279" y="411"/>
      <point x="476" y="201"/>
      <point x="748" y="201" type="curve" smooth="yes"/>
      <point x="810" y="201"/>
      <point x="879" y="212"/>
      <point x="945" y="234" type="curve"/>
      <point x="954" y="227" type="line"/>
      <point x="954" y="-21" type="line"/>
      <point x="1172" y="-57" type="line"/>
      <point x="1194" y="-39" type="line"/>
      <point x="1194" y="1137" type="line"/>
      <point x="1417" y="1137" type="line"/>
      <point x="1434" y="1160" type="line"/>
      <point x="1381" y="1330" type="line"/>
    </contour>
  </outline>
</glyph>
<glyph name="chadeva" format="1">
  <advance width="1431"/>
  <unicode hex="091B"/>
  <outline>
    <contour>
      <point x="-36" y="1330" type="line"/>
      <point x="-53" y="1307" type="line"/>
      <point x="0" y="1137" type="line"/>
      <point x="922" y="1137" type="line"/>
      <point x="922" y="1045" type="line"/>
      <point x="840" y="1026"/>
      <point x="775" y="960"/>
      <point x="775" y="844" type="curve" smooth="yes"/>
      <point x="775" y="715"/>
      <point x="849" y="590"/>
      <point x="1021" y="452" type="curve"/>
      <point x="925" y="309"/>
      <point x="778" y="198"/>
      <point x="626" y="198" type="curve" smooth="yes"/>
      <point x="522" y="198"/>
      <point x="471" y="251"/>
      <point x="471" y="318" type="curve" smooth="yes"/>
      <point x="471" y="404"/>
      <point x="553" y="506"/>
      <point x="735" y="536" type="curve"/>
      <point x="744" y="562" type="line"/>
      <point x="586" y="728" type="line"/>
      <point x="507" y="721"/>
      <point x="439" y="695"/>
      <point x="387" y="657" type="curve"/>
      <point x="350" y="681"/>
      <point x="332" y="709"/>
      <point x="332" y="744" type="curve" smooth="yes"/>
      <point x="332" y="827"/>
      <point x="428" y="897"/>
      <point x="624" y="897" type="curve"/>
      <point x="578" y="980"/>
      <point x="477" y="1065"/>
      <point x="350" y="1065" type="curve" smooth="yes"/>
      <point x="230" y="1065"/>
      <point x="117" y="988"/>
      <point x="117" y="864" type="curve" smooth="yes"/>
      <point x="117" y="751"/>
      <point x="202" y="648"/>
      <point x="313" y="580" type="curve"/>
      <point x="285" y="535"/>
      <point x="269" y="483"/>
      <point x="269" y="426" type="curve" smooth="yes"/>
      <point x="269" y="207"/>
      <point x="502" y="11"/>
      <point x="745" y="11" type="curve" smooth="yes"/>
      <point x="1065" y="11"/>
      <point x="1314" y="351"/>
      <point x="1314" y="635" type="curve" smooth="yes"/>
      <point x="1314" y="786"/>
      <point x="1240" y="917"/>
      <point x="1142" y="990" type="curve"/>
      <point x="1142" y="1137" type="line"/>
      <point x="1467" y="1137" type="line"/>
      <point x="1484" y="1160" type="line"/>
      <point x="1431" y="1330" type="line"/>
    </contour>
    <contour>
      <point x="1119" y="872"/>
      <point x="1130" y="826"/>
      <point x="1130" y="773" type="curve" smooth="yes"/>
      <point x="1130" y="701"/>
      <point x="1110" y="622"/>
      <point x="1075" y="548" type="curve"/>
      <point x="1002" y="619"/>
      <point x="975" y="682"/>
      <point x="975" y="742" type="curve" smooth="yes"/>
      <point x="975" y="816"/>
      <point x="1016" y="872"/>
      <point x="1070" y="872" type="curve" smooth="yes"/>
    </contour>
  </outline>
</glyph>
<glyph name="tadeva" format="1">
  <advance width="1301"/>
  <unicode hex="0924"/>
  <outline>
    <contour>
      <point x="-36" y="1330" type="line"/>
      <point x="-53" y="1307" type="line"/>
      <point x="0" y="1137" type="line"/>
      <point x="874" y="1137" type="line"/>
      <point x="874" y="923" type="line"/>
      <point x="416" y="923" type="line" smooth="yes"/>
      <point x="230" y="923"/>
      <point x="136" y="808"/>
      <point x="136" y="627" type="curve" smooth="yes"/>
      <point x="136" y="310"/>
      <point x="425" y="-68"/>
      <point x="586" y="-68" type="curve" smooth="yes"/>
      <point x="623" y="-68"/>
      <point x="653" y="-47"/>
      <point x="663" y="-10" type="curve"/>
      <point x="477" y="141"/>
      <point x="365" y="340"/>
      <point x="365" y="506" type="curve" smooth="yes"/>
      <point x="365" y="622"/>
      <point x="419" y="718"/>
      <point x="568" y="718" type="curve" smooth="yes"/>
      <point x="874" y="718" type="line"/>
      <point x="874" y="-21" type="line"/>
      <point x="1092" y="-57" type="line"/>
      <point x="1114" y="-39" type="line"/>
      <point x="1114" y="1137" type="line"/>
      <point x="1337" y="1137" type="line"/>
      <point x="1354" y="1160" type="line"/>
      <point x="1301" y="1330" type="line"/>
    </contour>
  </outline>
</glyph>
<glyph name="thadeva" format="1">
  <advance width="1401"/>
  <unicode hex="0925"/>
  <outline>
    <contour>
      <point x="182" y="1387"/>
      <point x="78" y="1315"/>
      <point x="78" y="1182" type="curve" smooth="yes"/>
      <point x="78" y="1014"/>
      <point x="244" y="886"/>
      <point x="359" y="886" type="curve" smooth="yes"/>
      <point x="412" y="886"/>
      <point x="443" y="913"/>
      <point x="459" y="932" type="curve"/>
      <point x="351" y="969"/>
      <point x="308" y="1026"/>
      <point x="308" y="1086" type="curve" smooth="yes"/>
      <point x="308" y="1154"/>
      <point x="363" y="1200"/>
      <point x="435" y="1200" type="curve" smooth="yes"/>
      <point x="512" y="1200"/>
      <point x="545" y="1146"/>
      <point x="545" y="1064" type="curve" smooth="yes"/>
      <point x="545" y="909"/>
      <point x="428" y="791"/>
      <point x="163" y="714" type="curve"/>
      <point x="151" y="688" type="line"/>
      <point x="331" y="337"/>
      <point x="602" y="181"/>
      <point x="824" y="181" type="curve" smooth="yes"/>
      <point x="877" y="181"/>
      <point x="923" y="190"/>
      <point x="965" y="206" type="curve"/>
      <point x="974" y="200" type="line"/>
      <point x="974" y="-21" type="line"/>
      <point x="1191" y="-57" type="line"/>
      <point x="1213" y="-39" type="line"/>
      <point x="1214" y="1137" type="line"/>
      <point x="1437" y="1137" type="line"/>
      <point x="1454" y="1160" type="line"/>
      <point x="1401" y="1330" type="line"/>
      <point x="764" y="1330" type="line"/>
      <point x="747" y="1307" type="line"/>
      <point x="800" y="1137" type="line"/>
      <point x="974" y="1137" type="line"/>
      <point x="974" y="680" type="line" smooth="yes"/>
      <point x="974" y="512"/>
      <point x="838" y="401"/>
      <point x="674" y="401" type="curve" smooth="yes"/>
      <point x="572" y="401"/>
      <point x="483" y="444"/>
      <point x="414" y="529" type="curve"/>
      <point x="652" y="614"/>
      <point x="765" y="751"/>
      <point x="765" y="923" type="curve" smooth="yes"/>
      <point x="765" y="1166"/>
      <point x="542" y="1387"/>
      <point x="313" y="1387" type="curve" smooth="yes"/>
    </contour>
  </outline>
</glyph>
<glyph name="padeva" format="1">
  <advance width="1171"/>
  <unicode hex="092A"/>
  <outline>
    <contour>
      <point x="-36" y="1330" type="line"/>
      <point x="-53" y="1307" type="line"/>
      <point x="0" y="1137" type="line"/>
      <point x="129" y="1137" type="line"/>
      <point x="129" y="755" type="line" smooth="yes"/>
      <point x="129" y="506"/>
      <point x="338" y="291"/>
      <point x="567" y="291" type="curve" smooth="yes"/>
      <point x="622" y="291"/>
      <point x="681" y="303"/>
      <point x="735" y="326" type="curve"/>
      <point x="744" y="320" type="line"/>
      <point x="744" y="-21" type="line"/>
      <point x="962" y="-57" type="line"/>
      <point x="984" y="-39" type="line"/>
      <point x="984" y="1137" type="line"/>
      <point x="1207" y="1137" type="line"/>
      <point x="1224" y="1160" type="line"/>
      <point x="1171" y="1330" type="line"/>
    </contour>
    <contour>
      <point x="744" y="750" type="line" smooth="yes"/>
      <point x="744" y="600"/>
      <point x="619" y="483"/>
      <point x="496" y="483" type="curve" smooth="yes"/>
      <point x="408" y="483"/>
      <point x="359" y="542"/>
      <point x="359" y="650" type="curve" smooth="yes"/>
      <point x="359" y="1137" type="line"/>
      <point x="744" y="1137" type="line"/>
    </contour>
  </outline>
</glyph>
<glyph name="badeva" format="1">
  <advance width="1230"/>
  <unicode hex="092C"/>
  <outline>
    <contour>
      <point x="213" y="867" type="line"/>
      <point x="672" y="327" type="line"/>
      <point x="853" y="347" type="line"/>
      <point x="394" y="897" type="line"/>
    </contour>
    <component base="vadeva"/>
  </outline>
</glyph>
<glyph name="yadeva" format="1">
  <advance width="1348"/>
  <unicode hex="092F"/>
  <outline>
    <contour>
      <point x="-36" y="1330" type="line"/>
      <point x="-53" y="1307" type="line"/>
      <point x="0" y="1137" type="line"/>
      <point x="398" y="1137" type="line"/>
      <point x="412" y="1101"/>
      <point x="422" y="1058"/>
      <point x="422" y="1013" type="curve" smooth="yes"/>
      <point x="422" y="894"/>
      <point x="354" y="816"/>
      <point x="139" y="754" type="curve"/>
      <point x="127" y="728" type="line"/>
      <point x="299" y="350"/>
      <point x="552" y="201"/>
      <point x="771" y="201" type="curve" smooth="yes"/>
      <point x="825" y="201"/>
      <point x="870" y="210"/>
      <point x="912" y="225" type="curve"/>
      <point x="921" y="219" type="line"/>
      <point x="921" y="-21" type="line"/>
      <point x="1138" y="-57" type="line"/>
      <point x="1160" y="-39" type="line"/>
      <point x="1161" y="1137" type="line"/>
      <point x="1384" y="1137" type="line"/>
      <point x="1401" y="1160" type="line"/>
      <point x="1348" y="1330" type="line"/>
    </contour>
    <contour>
      <point x="921" y="690" type="line" smooth="yes"/>
      <point x="921" y="528"/>
      <point x="777" y="421"/>
      <point x="639" y="421" type="curve" smooth="yes"/>
      <point x="546" y="421"/>
      <point x="452" y="469"/>
      <point x="387" y="568" type="curve"/>
      <point x="554" y="629"/>
      <point x="642" y="726"/>
      <point x="642" y="858" type="curve" smooth="yes"/>
      <point x="642" y="941"/>
      <point x="607" y="1042"/>
      <point x="554" y="1127" type="curve"/>
      <point x="560" y="1137" type="line"/>
      <point x="921" y="1137" type="line"/>
    </contour>
  </outline>
</glyph>
<glyph name="radeva" format="1">
  <advance width="946"/>
  <unicode hex="0930"/>
  <outline>
    <contour>
      <point x="-36" y="1330" type="line"/>
      <point x="-53" y="1307" type="line"/>
      <point x="0" y="1137" type="line"/>
      <point x="481" y="1137" type="line"/>
      <point x="510" y="1064"/>
      <point x="523" y="994"/>
      <point x="523" y="933" type="curve" smooth="yes"/>
      <point x="523" y="834"/>
      <point x="488" y="766"/>
      <point x="400" y="721" type="curve"/>
      <point x="330" y="762"/>
      <point x="262" y="779"/>
      <point x="213" y="779" type="curve" smooth="yes"/>
      <point x="125" y="779"/>
      <point x="78" y="725"/>
      <point x="78" y="648" type="curve" smooth="yes"/>
      <point x="78" y="429"/>
      <point x="463" y="-52"/>
      <point x="700" y="-52" type="curve" smooth="yes"/>
      <point x="774" y="-52"/>
      <point x="825" y="-6"/>
      <point x="843" y="66" type="curve"/>
      <point x="636" y="160"/>
      <point x="484" y="264"/>
      <point x="354" y="427" type="curve"/>
      <point x="635" y="481"/>
      <point x="737" y="627"/>
      <point x="737" y="799" type="curve" smooth="yes"/>
      <point x="737" y="907"/>
      <point x="697" y="1023"/>
      <point x="644" y="1128" type="curve"/>
      <point x="650" y="1137" type="line"/>
      <point x="982" y="1137" type="line"/>
      <point x="999" y="1160" type="line"/>
      <point x="946" y="1330" type="line"/>
    </contour>
  </outline>
</glyph>
<glyph name="ladeva" format="1">
  <advance width="1441"/>
  <unicode hex="0932"/>
  <outline>
    <contour>
      <point x="-66" y="1330" type="line"/>
      <point x="-83" y="1307" type="line"/>
      <point x="-30" y="1137" type="line"/>
      <point x="1014" y="1137" type="line"/>
      <point x="1014" y="928" type="line"/>
      <point x="882" y="917"/>
      <point x="770" y="868"/>
      <point x="685" y="788" type="curve"/>
      <point x="588" y="887"/>
      <point x="474" y="946"/>
      <point x="352" y="946" type="curve" smooth="yes"/>
      <point x="183" y="946"/>
      <point x="81" y="833"/>
      <point x="81" y="650" type="curve" smooth="yes"/>
      <point x="81" y="316"/>
      <point x="423" y="-78"/>
      <point x="585" y="-78" type="curve" smooth="yes"/>
      <point x="628" y="-78"/>
      <point x="666" y="-50"/>
      <point x="681" y="-6" type="curve"/>
      <point x="449" y="152"/>
      <point x="318" y="374"/>
      <point x="318" y="533" type="curve" smooth="yes"/>
      <point x="318" y="652"/>
      <point x="391" y="738"/>
      <point x="489" y="738" type="curve" smooth="yes"/>
      <point x="531" y="738"/>
      <point x="566" y="722"/>
      <point x="603" y="689" type="curve"/>
      <point x="573" y="642"/>
      <point x="550" y="590"/>
      <point x="533" y="532" type="curve"/>
      <point x="733" y="396" type="line"/>
      <point x="759" y="406" type="line"/>
      <point x="804" y="560"/>
      <point x="880" y="663"/>
      <point x="1005" y="716" type="curve"/>
      <point x="1014" y="710" type="line"/>
      <point x="1014" y="-21" type="line"/>
      <point x="1232" y="-57" type="line"/>
      <point x="1254" y="-39" type="line"/>
      <point x="1254" y="1137" type="line"/>
      <point x="1477" y="1137" type="line"/>
      <point x="1494" y="1160" type="line"/>
      <point x="1441" y="1330" type="line"/>
    </contour>
  </outline>
</glyph>
<glyph name="hadeva" format="1">
  <advance width="1066"/>
  <unicode hex="0939"/>
  <outline>
    <contour>
      <point x="-36" y="1330" type="line"/>
      <point x="-53" y="1307" type="line"/>
      <point x="0" y="1137" type="line"/>
      <point x="648" y="1137" type="line"/>
      <point x="648" y="1026" type="line" smooth="yes"/>
      <point x="648" y="1013"/>
      <point x="641" y="1006"/>
      <point x="628" y="1006" type="curve" smooth="yes"/>
      <point x="297" y="1006" type="line" smooth="yes"/>
      <point x="159" y="1006"/>
      <point x="94" y="929"/>
      <point x="94" y="827" type="curve" smooth="yes"/>
      <point x="94" y="730"/>
      <point x="153" y="642"/>
      <point x="230" y="578" type="curve"/>
      <point x="173" y="519"/>
      <point x="143" y="445"/>
      <point x="143" y="354" type="curve" smooth="yes"/>
      <point x="143" y="63"/>
      <point x="463" y="-167"/>
      <point x="755" y="-167" type="curve" smooth="yes"/>
      <point x="888" y="-167"/>
      <point x="928" y="-118"/>
      <point x="928" y="-42" type="curve"/>
      <point x="575" y="-42"/>
      <point x="373" y="88"/>
      <point x="373" y="259" type="curve" smooth="yes"/>
      <point x="373" y="405"/>
      <point x="510" y="506"/>
      <point x="657" y="506" type="curve" smooth="yes"/>
      <point x="747" y="506"/>
      <point x="778" y="469"/>
      <point x="778" y="422" type="curve" smooth="yes"/>
      <point x="778" y="364"/>
      <point x="729" y="312"/>
      <point x="618" y="268" type="curve"/>
      <point x="644" y="188"/>
      <point x="724" y="135"/>
      <point x="806" y="135" type="curve" smooth="yes"/>
      <point x="897" y="135"/>
      <point x="968" y="201"/>
      <point x="968" y="316" type="curve" smooth="yes"/>
      <point x="968" y="501"/>
      <point x="786" y="687"/>
      <point x="526" y="687" type="curve" smooth="yes"/>
      <point x="452" y="687"/>
      <point x="386" y="672"/>
      <point x="334" y="649" type="curve"/>
      <point x="325" y="667"/>
      <point x="319" y="687"/>
      <point x="319" y="710" type="curve" smooth="yes"/>
      <point x="319" y="767"/>
      <point x="357" y="825"/>
      <point x="459" y="825" type="curve" smooth="yes"/>
      <point x="862" y="825" type="line"/>
      <point x="882" y="845" type="line"/>
      <point x="882" y="1137" type="line"/>
      <point x="1102" y="1137" type="line"/>
      <point x="1119" y="1160" type="line"/>
      <point x="1066" y="1330" type="line"/>
    </contour>
  </outline>
</glyph>
<glyph name="nuktadeva" format="1">
  <advance width="0"/>
  <unicode hex="093C"/>
  <outline>
    <contour>
      <point x="-798" y="176"/>
      <point x="-855" y="119"/>
      <point x="-855" y="50" type="curve" smooth="yes"/>
      <point x="-855" y="-19"/>
      <point x="-798" y="-76"/>
      <point x="-728" y="-76" type="curve" smooth="yes"/>
      <point x="-659" y="-76"/>
      <point x="-603" y="-19"/>
      <point x="-603" y="50" type="curve" smooth="yes"/>
      <point x="-603" y="119"/>
      <point x="-659" y="176"/>
      <point x="-728" y="176" type="curve" smooth="yes"/>
    </contour>
  </outline>
</glyph>
<glyph name="avagrahadeva" format="1">
  <advance width="1047"/>
  <unicode hex="093D"/>
  <outline>
    <contour>
      <point x="443" y="1330" type="line" smooth="yes"/>
      <point x="267" y="1330"/>
      <point x="151" y="1254"/>
      <point x="151" y="1108" type="curve" smooth="yes"/>
      <point x="151" y="1038"/>
      <point x="178" y="969"/>
      <point x="224" y="903" type="curve" smooth="yes"/>
      <point x="423" y="619"/>
      <point x="777" y="689"/>
      <point x="777" y="466" type="curve" smooth="yes"/>
      <point x="777" y="354"/>
      <point x="688" y="265"/>
      <point x="547" y="265" type="curve" smooth="yes"/>
      <point x="385" y="265"/>
      <point x="246" y="382"/>
      <point x="212" y="636" type="curve"/>
      <point x="123" y="623"/>
      <point x="110" y="568"/>
      <point x="110" y="518" type="curve" smooth="yes"/>
      <point x="110" y="317"/>
      <point x="323" y="49"/>
      <point x="613" y="49" type="curve" smooth="yes"/>
      <point x="829" y="49"/>
      <point x="957" y="198"/>
      <point x="957" y="371" type="curve" smooth="yes"/>
      <point x="957" y="440"/>
      <point x="937" y="526"/>
      <point x="882" y="607" type="curve" smooth="yes"/>
      <point x="714" y="854"/>
      <point x="361" y="837"/>
      <point x="361" y="1001" type="curve" smooth="yes"/>
      <point x="361" y="1076"/>
      <point x="427" y="1138"/>
      <point x="606" y="1137" type="curve" smooth="yes"/>
      <point x="895" y="1137" type="line"/>
      <point x="912" y="1160" type="line"/>
      <point x="859" y="1330" type="line"/>
    </contour>
  </outline>
</glyph>
<glyph name="oshortsigndeva" format="1">
  <advance width="653"/>
  <unicode hex="094A"/>
  <outline>
    <contour>
      <point x="-625" y="1922"/>
      <point x="-635" y="1896"/>
      <point x="-635" y="1852" type="curve" smooth="yes"/>
      <point x="-635" y="1687"/>
      <point x="-455" y="1521"/>
      <point x="0" y="1494" type="curve" smooth="yes"/>
      <point x="187" y="1482"/>
      <point x="233" y="1461"/>
      <point x="233" y="1403" type="curve" smooth="yes"/>
      <point x="233" y="1378"/>
      <point x="225" y="1339"/>
      <point x="206" y="1301" type="curve"/>
      <point x="442" y="1301" type="line"/>
      <point x="362" y="1548"/>
      <point x="196" y="1694"/>
      <point x="-101" y="1740" type="curve" smooth="yes"/>
      <point x="-419" y="1791"/>
      <point x="-516" y="1834"/>
      <point x="-597" y="1956" type="curve"/>
    </contour>
    <component base="aasigndeva"/>
  </outline>
</glyph>
<glyph name="osigndeva" format="1">
  <advance width="653"/>
  <unicode hex="094B"/>
  <outline>
    <contour>
      <point x="-477" y="1932"/>
      <point x="-532" y="1861"/>
      <point x="-532" y="1793" type="curve" smooth="yes"/>
      <point x="-532" y="1711"/>
      <point x="-452" y="1624"/>
      <point x="-333" y="1588" type="curve"/>
      <point x="-306" y="1627"/>
      <point x="-259" y="1658"/>
      <point x="-193" y="1658" type="curve" smooth="yes"/>
      <point x="-85" y="1658"/>
      <point x="6" y="1592"/>
      <point x="318" y="1210" type="curve"/>
      <point x="453" y="1249" type="line"/>
      <point x="42" y="1780"/>
      <point x="-151" y="1932"/>
      <point x="-346" y="1932" type="curve" smooth="yes"/>
    </contour>
    <component base="aasigndeva"/>
  </outline>
</glyph>
<glyph name="ausigndeva" format="1">
  <advance width="653"/>
  <unicode hex="094C"/>
  <outline>
    <contour>
      <point x="-189" y="2032"/>
      <point x="-235" y="1973"/>
      <point x="-235" y="1911" type="curve" smooth="yes"/>
      <point x="-235" y="1849"/>
      <point x="-188" y="1781"/>
      <point x="-62" y="1731" type="curve"/>
      <point x="-41" y="1755"/>
      <point x="-11" y="1774"/>
      <point x="25" y="1774" type="curve" smooth="yes"/>
      <point x="84" y="1774"/>
      <point x="137" y="1716"/>
      <point x="248" y="1427" type="curve"/>
      <point x="11" y="1624"/>
      <point x="-220" y="1742"/>
      <point x="-352" y="1742" type="curve" smooth="yes"/>
      <point x="-431" y="1742"/>
      <point x="-509" y="1700"/>
      <point x="-509" y="1612" type="curve" smooth="yes"/>
      <point x="-509" y="1534"/>
      <point x="-448" y="1463"/>
      <point x="-313" y="1424" type="curve"/>
      <point x="-288" y="1470"/>
      <point x="-244" y="1497"/>
      <point x="-179" y="1497" type="curve" smooth="yes"/>
      <point x="-77" y="1497"/>
      <point x="134" y="1390"/>
      <point x="318" y="1210" type="curve"/>
      <point x="327" y="1213" type="line"/>
      <point x="328" y="1210" type="line"/>
      <point x="443" y="1249" type="line"/>
      <point x="276" y="1836"/>
      <point x="100" y="2032"/>
      <point x="-87" y="2032" type="curve" smooth="yes"/>
    </contour>
    <component base="aasigndeva"/>
  </outline>
</glyph>
<glyph name="eprishthamatrasigndeva" format="1">
  <advance width="653"/>
  <unicode hex="094E"/>
  <outline>
    <contour>
      <point x="206" y="1330" type="line"/>
      <point x="206" y="-21" type="line"/>
      <point x="424" y="-57" type="line"/>
      <point x="446" y="-39" type="line"/>
      <point x="446" y="1137" type="line"/>
      <point x="689" y="1137" type="line"/>
      <point x="706" y="1160" type="line"/>
      <point x="653" y="1330" type="line"/>
    </contour>
  </outline>
</glyph>
<glyph name="awsigndeva" format="1">
  <advance width="653"/>
  <unicode hex="094F"/>
  <outline>
    <contour>
      <point x="-422" y="2017"/>
      <point x="-433" y="1982"/>
      <point x="-433" y="1947" type="curve" smooth="yes"/>
      <point x="-433" y="1849"/>
      <point x="-328" y="1734"/>
      <point x="3" y="1687" type="curve" smooth="yes"/>
      <point x="218" y="1657"/>
      <point x="258" y="1590"/>
      <point x="264" y="1488" type="curve"/>
      <point x="185" y="1572"/>
      <point x="42" y="1621"/>
      <point x="-188" y="1621" type="curve" smooth="yes"/>
      <point x="-462" y="1621"/>
      <point x="-561" y="1708"/>
      <point x="-639" y="1846" type="curve"/>
      <point x="-656" y="1818"/>
      <point x="-667" y="1790"/>
      <point x="-667" y="1750" type="curve" smooth="yes"/>
      <point x="-667" y="1604"/>
      <point x="-514" y="1437"/>
      <point x="-72" y="1437" type="curve" smooth="yes"/>
      <point x="172" y="1437"/>
      <point x="225" y="1406"/>
      <point x="225" y="1343" type="curve" smooth="yes"/>
      <point x="225" y="1323"/>
      <point x="220" y="1291"/>
      <point x="208" y="1261" type="curve"/>
      <point x="437" y="1261" type="line"/>
      <point x="417" y="1632"/>
      <point x="288" y="1804"/>
      <point x="-51" y="1871" type="curve" smooth="yes"/>
      <point x="-297" y="1920"/>
      <point x="-362" y="1952"/>
      <point x="-400" y="2043" type="curve"/>
    </contour>
    <component base="aasigndeva"/>
  </outline>
</glyph>
<glyph name="udattadeva" format="1">
  <advance width="0"/>
  <unicode hex="0951"/>
  <outline>
    <contour>
      <point x="-415" y="1922" type="line"/>
      <point x="-415" y="1469" type="line"/>
      <point x="-216" y="1442" type="line"/>
      <point x="-192" y="1464" type="line"/>
      <point x="-192" y="1917" type="line"/>
      <point x="-391" y="1944" type="line"/>
    </contour>
  </outline>
</glyph>
<glyph name="anudattadeva" format="1">
  <advance width="0"/>
  <unicode hex="0952"/>
  <outline>
    <contour>
      <point x="-828" y="-180" type="line"/>
      <point x="-778" y="-333" type="line"/>
      <point x="-128" y="-333" type="line"/>
      <point x="-178" y="-180" type="line"/>
    </contour>
  </outline>
</glyph>
<glyph name="rrvocalicdeva" format="1">
  <advance width="1773"/>
  <unicode hex="0960"/>
  <outline>
    <contour>
      <point x="-36" y="1330" type="line"/>
      <point x="-53" y="1307" type="line"/>
      <point x="0" y="1137" type="line"/>
      <point x="794" y="1137" type="line"/>
      <point x="794" y="771" type="line"/>
      <point x="784" y="766" type="line"/>
      <point x="526" y="970"/>
      <point x="432" y="1019"/>
      <point x="323" y="1019" type="curve" smooth="yes"/>
      <point x="175" y="1019"/>
      <point x="94" y="931"/>
      <point x="94" y="859" type="curve" smooth="yes"/>
      <point x="94" y="787"/>
      <point x="162" y="723"/>
      <point x="274" y="665" type="curve"/>
      <point x="324" y="731"/>
      <point x="403" y="779"/>
      <point x="476" y="779" type="curve" smooth="yes"/>
      <point x="526" y="779"/>
      <point x="561" y="774"/>
      <point x="712" y="668" type="curve"/>
      <point x="534" y="551"/>
      <point x="376" y="425"/>
      <point x="231" y="296" type="curve"/>
      <point x="231" y="268" type="line"/>
      <point x="428" y="98" type="line"/>
      <point x="540" y="201"/>
      <point x="657" y="302"/>
      <point x="784" y="398" type="curve"/>
      <point x="794" y="393" type="line"/>
      <point x="794" y="-21" type="line"/>
      <point x="1012" y="-57" type="line"/>
      <point x="1034" y="-39" type="line"/>
      <point x="1034" y="507" type="line"/>
      <point x="1153" y="512"/>
      <point x="1264" y="541"/>
      <point x="1353" y="586" type="curve"/>
      <point x="1383" y="528" type="line"/>
      <point x="1251" y="449"/>
      <point x="1186" y="377"/>
      <point x="1186" y="291" type="curve" smooth="yes"/>
      <point x="1186" y="143"/>
      <point x="1381" y="-70"/>
      <point x="1591" y="-70" type="curve" smooth="yes"/>
      <point x="1722" y="-70"/>
      <point x="1826" y="13"/>
      <point x="1826" y="97" type="curve" smooth="yes"/>
      <point x="1826" y="179"/>
      <point x="1725" y="250"/>
      <point x="1661" y="267" type="curve"/>
      <point x="1610" y="170"/>
      <point x="1499" y="118"/>
      <point x="1434" y="118" type="curve" smooth="yes"/>
      <point x="1400" y="118"/>
      <point x="1385" y="132"/>
      <point x="1385" y="162" type="curve" smooth="yes"/>
      <point x="1385" y="218"/>
      <point x="1436" y="278"/>
      <point x="1609" y="381" type="curve"/>
      <point x="1563" y="464"/>
      <point x="1515" y="555"/>
      <point x="1465" y="661" type="curve"/>
      <point x="1523" y="714"/>
      <point x="1557" y="775"/>
      <point x="1557" y="838" type="curve" smooth="yes"/>
      <point x="1557" y="945"/>
      <point x="1457" y="1055"/>
      <point x="1332" y="1055" type="curve" smooth="yes"/>
      <point x="1232" y="1055"/>
      <point x="1193" y="985"/>
      <point x="1193" y="934" type="curve" smooth="yes"/>
      <point x="1193" y="895"/>
      <point x="1201" y="860"/>
      <point x="1235" y="808" type="curve"/>
      <point x="1175" y="767"/>
      <point x="1110" y="739"/>
      <point x="1034" y="724" type="curve"/>
      <point x="1034" y="1137" type="line"/>
      <point x="1807" y="1137" type="line"/>
      <point x="1824" y="1160" type="line"/>
      <point x="1771" y="1330" type="line"/>
    </contour>
  </outline>
</glyph>
<glyph name="llvocalicsigndeva" format="1">
  <advance width="0"/>
  <unicode hex="0963"/>
  <outline>
    <contour>
      <point x="-808" y="-70"/>
      <point x="-878" y="-149"/>
      <point x="-878" y="-257" type="curve" smooth="yes"/>
      <point x="-878" y="-460"/>
      <point x="-634" y="-667"/>
      <point x="-547" y="-667" type="curve" smooth="yes"/>
      <point x="-517" y="-667"/>
      <point x="-481" y="-642"/>
      <point x="-472" y="-601" type="curve"/>
      <point x="-622" y="-522"/>
      <point x="-711" y="-412"/>
      <point x="-711" y="-327" type="curve" smooth="yes"/>
      <point x="-711" y="-264"/>
      <point x="-663" y="-215"/>
      <point x="-597" y="-215" type="curve" smooth="yes"/>
      <point x="-576" y="-215"/>
      <point x="-555" y="-220"/>
      <point x="-534" y="-229" type="curve"/>
      <point x="-553" y="-269"/>
      <point x="-568" y="-319"/>
      <point x="-577" y="-380" type="curve"/>
      <point x="-441" y="-453" type="line"/>
      <point x="-416" y="-439" type="line"/>
      <point x="-382" y="-255"/>
      <point x="-288" y="-216"/>
      <point x="-240" y="-216" type="curve" smooth="yes"/>
      <point x="-209" y="-216"/>
      <point x="-192" y="-232"/>
      <point x="-192" y="-264" type="curve" smooth="yes"/>
      <point x="-192" y="-317"/>
      <point x="-239" y="-355"/>
      <point x="-302" y="-410" type="curve" smooth="yes"/>
      <point x="-389" y="-485"/>
      <point x="-402" y="-527"/>
      <point x="-402" y="-569" type="curve" smooth="yes"/>
      <point x="-402" y="-619"/>
      <point x="-357" y="-671"/>
      <point x="-297" y="-705" type="curve"/>
      <point x="-318" y="-725"/>
      <point x="-326" y="-745"/>
      <point x="-326" y="-766" type="curve" smooth="yes"/>
      <point x="-326" y="-846"/>
      <point x="-214" y="-956"/>
      <point x="-79" y="-956" type="curve" smooth="yes"/>
      <point x="11" y="-956"/>
      <point x="73" y="-907"/>
      <point x="73" y="-859" type="curve" smooth="yes"/>
      <point x="73" y="-821"/>
      <point x="35" y="-784"/>
      <point x="-27" y="-762" type="curve"/>
      <point x="-58" y="-816"/>
      <point x="-124" y="-842"/>
      <point x="-162" y="-842" type="curve" smooth="yes"/>
      <point x="-185" y="-842"/>
      <point x="-198" y="-833"/>
      <point x="-198" y="-814" type="curve" smooth="yes"/>
      <point x="-198" y="-789"/>
      <point x="-177" y="-751"/>
      <point x="-57" y="-697" type="curve"/>
      <point x="-47" y="-670" type="line"/>
      <point x="-113" y="-572" type="line"/>
      <point x="-167" y="-608"/>
      <point x="-209" y="-630"/>
      <point x="-235" y="-630" type="curve" smooth="yes"/>
      <point x="-249" y="-630"/>
      <point x="-257" y="-623"/>
      <point x="-257" y="-612" type="curve" smooth="yes"/>
      <point x="-257" y="-574"/>
      <point x="-199" y="-552"/>
      <point x="-128" y="-494" type="curve" smooth="yes"/>
      <point x="-81" y="-456"/>
      <point x="-42" y="-413"/>
      <point x="-42" y="-336" type="curve" smooth="yes"/>
      <point x="-42" y="-191"/>
      <point x="-179" y="-80"/>
      <point x="-312" y="-80" type="curve" smooth="yes"/>
      <point x="-365" y="-80"/>
      <point x="-429" y="-98"/>
      <point x="-482" y="-153" type="curve"/>
      <point x="-557" y="-94"/>
      <point x="-623" y="-70"/>
      <point x="-693" y="-70" type="curve" smooth="yes"/>
    </contour>
  </outline>
</glyph>
<glyph name="danda" format="1">
  <advance width="941"/>
  <unicode hex="0964"/>
  <outline>
    <contour>
      <point x="501" y="1330" type="line"/>
      <point x="501" y="-61" type="line"/>
      <point x="719" y="-97" type="line"/>
      <point x="741" y="-79" type="line"/>
      <point x="741" y="1312" type="line"/>
      <point x="523" y="1348" type="line"/>
    </contour>
  </outline>
</glyph>
<glyph name="dbldanda" format="1">
  <advance width="1341"/>
  <unicode hex="0965"/>
  <outline>
    <contour>
      <point x="901" y="1330" type="line"/>
      <point x="901" y="-61" type="line"/>
      <point x="1119" y="-97" type="line"/>
      <point x="1141" y="-79" type="line"/>
      <point x="1141" y="1312" type="line"/>
      <point x="923" y="1348" type="line"/>
    </contour>
    <contour>
      <point x="501" y="1330" type="line"/>
      <point x="501" y="-61" type="line"/>
      <point x="719" y="-97" type="line"/>
      <point x="741" y="-79" type="line"/>
      <point x="741" y="1312" type="line"/>
      <point x="523" y="1348" type="line"/>
    </contour>
  </outline>
</glyph>
<glyph name="zerodeva" format="1">
  <advance width="1118"/>
  <unicode hex="0966"/>
  <outline>
    <contour>
      <point x="272" y="1046"/>
      <point x="100" y="873"/>
      <point x="100" y="654" type="curve" smooth="yes"/>
      <point x="100" y="391"/>
      <point x="350" y="136"/>
      <point x="627" y="136" type="curve" smooth="yes"/>
      <point x="844" y="136"/>
      <point x="1018" y="292"/>
      <point x="1018" y="522" type="curve" smooth="yes"/>
      <point x="1018" y="790"/>
      <point x="780" y="1046"/>
      <point x="501" y="1046" type="curve" smooth="yes"/>
    </contour>
    <contour>
      <point x="726" y="829"/>
      <point x="807" y="757"/>
      <point x="807" y="634" type="curve" smooth="yes"/>
      <point x="807" y="470"/>
      <point x="664" y="348"/>
      <point x="518" y="348" type="curve" smooth="yes"/>
      <point x="396" y="348"/>
      <point x="322" y="434"/>
      <point x="322" y="547" type="curve" smooth="yes"/>
      <point x="322" y="694"/>
      <point x="447" y="829"/>
      <point x="608" y="829" type="curve" smooth="yes"/>
    </contour>
  </outline>
</glyph>
<glyph name="onedeva" format="1">
  <advance width="879"/>
  <unicode hex="0967"/>
  <outline>
    <contour>
      <point x="248" y="1287"/>
      <point x="120" y="1187"/>
      <point x="120" y="1023" type="curve" smooth="yes"/>
      <point x="120" y="862"/>
      <point x="244" y="742"/>
      <point x="398" y="651" type="curve"/>
      <point x="325" y="573"/>
      <point x="229" y="481"/>
      <point x="108" y="372" type="curve"/>
      <point x="108" y="342" type="line"/>
      <point x="455" y="106"/>
      <point x="161" y="307"/>
      <point x="494" y="80" type="curve" smooth="yes"/>
      <point x="541" y="48"/>
      <point x="572" y="23"/>
      <point x="572" y="-15" type="curve" smooth="yes"/>
      <point x="572" y="-54"/>
      <point x="540" y="-93"/>
      <point x="469" y="-127" type="curve"/>
      <point x="506" y="-223"/>
      <point x="573" y="-287"/>
      <point x="658" y="-287" type="curve" smooth="yes"/>
      <point x="748" y="-287"/>
      <point x="814" y="-215"/>
      <point x="814" y="-121" type="curve" smooth="yes"/>
      <point x="814" y="-52"/>
      <point x="779" y="30"/>
      <point x="647" y="130" type="curve" smooth="yes"/>
      <point x="598" y="167"/>
      <point x="473" y="254"/>
      <point x="403" y="300" type="curve"/>
      <point x="680" y="552"/>
      <point x="794" y="693"/>
      <point x="794" y="863" type="curve" smooth="yes"/>
      <point x="794" y="1081"/>
      <point x="607" y="1287"/>
      <point x="396" y="1287" type="curve" smooth="yes"/>
    </contour>
    <contour>
      <point x="543" y="1082"/>
      <point x="578" y="1044"/>
      <point x="578" y="973" type="curve" smooth="yes"/>
      <point x="578" y="907"/>
      <point x="547" y="836"/>
      <point x="481" y="750" type="curve"/>
      <point x="391" y="806"/>
      <point x="360" y="864"/>
      <point x="360" y="928" type="curve" smooth="yes"/>
      <point x="360" y="1009"/>
      <point x="410" y="1082"/>
      <point x="487" y="1082" type="curve" smooth="yes"/>
    </contour>
  </outline>
</glyph>
<glyph name="twodeva" format="1">
  <advance width="1122"/>
  <unicode hex="0968"/>
  <outline>
    <contour>
      <point x="322" y="1287"/>
      <point x="171" y="1152"/>
      <point x="171" y="1009" type="curve" smooth="yes"/>
      <point x="171" y="900"/>
      <point x="259" y="829"/>
      <point x="397" y="829" type="curve"/>
      <point x="397" y="964"/>
      <point x="496" y="1082"/>
      <point x="641" y="1082" type="curve" smooth="yes"/>
      <point x="739" y="1082"/>
      <point x="806" y="1029"/>
      <point x="806" y="912" type="curve" smooth="yes"/>
      <point x="806" y="777"/>
      <point x="717" y="615"/>
      <point x="494" y="513" type="curve"/>
      <point x="439" y="588"/>
      <point x="369" y="625"/>
      <point x="298" y="625" type="curve" smooth="yes"/>
      <point x="209" y="625"/>
      <point x="140" y="567"/>
      <point x="140" y="481" type="curve" smooth="yes"/>
      <point x="140" y="371"/>
      <point x="254" y="252"/>
      <point x="445" y="244" type="curve"/>
      <point x="588" y="-90"/>
      <point x="767" y="-188"/>
      <point x="902" y="-188" type="curve" smooth="yes"/>
      <point x="1007" y="-188"/>
      <point x="1062" y="-128"/>
      <point x="1062" y="-54" type="curve" smooth="yes"/>
      <point x="1062" y="4"/>
      <point x="1029" y="64"/>
      <point x="967" y="111" type="curve"/>
      <point x="915" y="73"/>
      <point x="873" y="55"/>
      <point x="824" y="55" type="curve" smooth="yes"/>
      <point x="737" y="55"/>
      <point x="677" y="108"/>
      <point x="601" y="277" type="curve"/>
      <point x="883" y="392"/>
      <point x="1026" y="585"/>
      <point x="1026" y="801" type="curve" smooth="yes"/>
      <point x="1026" y="1064"/>
      <point x="814" y="1287"/>
      <point x="537" y="1287" type="curve" smooth="yes"/>
    </contour>
  </outline>
</glyph>
<glyph name="fourdeva" format="1">
  <advance width="1190"/>
  <unicode hex="096A"/>
  <outline>
    <contour>
      <point x="174" y="1281"/>
      <point x="100" y="1198"/>
      <point x="100" y="1087" type="curve" smooth="yes"/>
      <point x="100" y="945"/>
      <point x="179" y="865"/>
      <point x="473" y="633" type="curve"/>
      <point x="356" y="466"/>
      <point x="336" y="406"/>
      <point x="336" y="341" type="curve" smooth="yes"/>
      <point x="336" y="164"/>
      <point x="497" y="-11"/>
      <point x="709" y="-11" type="curve" smooth="yes"/>
      <point x="852" y="-11"/>
      <point x="964" y="69"/>
      <point x="964" y="226" type="curve" smooth="yes"/>
      <point x="964" y="346"/>
      <point x="899" y="447"/>
      <point x="752" y="581" type="curve"/>
      <point x="780" y="616" type="line" smooth="yes"/>
      <point x="1009" y="922"/>
      <point x="1083" y="1021"/>
      <point x="1140" y="1100" type="curve"/>
      <point x="928" y="1249" type="line"/>
      <point x="775" y="1038"/>
      <point x="713" y="957"/>
      <point x="596" y="802" type="curve" smooth="yes"/>
      <point x="554" y="746" type="line"/>
      <point x="396" y="870"/>
      <point x="344" y="900"/>
      <point x="344" y="975" type="curve" smooth="yes"/>
      <point x="344" y="1024"/>
      <point x="397" y="1086"/>
      <point x="496" y="1086" type="curve"/>
      <point x="449" y="1214"/>
      <point x="383" y="1281"/>
      <point x="284" y="1281" type="curve" smooth="yes"/>
    </contour>
    <contour>
      <point x="715" y="422"/>
      <point x="742" y="373"/>
      <point x="742" y="312" type="curve" smooth="yes"/>
      <point x="742" y="234"/>
      <point x="696" y="188"/>
      <point x="639" y="188" type="curve" smooth="yes"/>
      <point x="592" y="188"/>
      <point x="547" y="217"/>
      <point x="547" y="274" type="curve" smooth="yes"/>
      <point x="547" y="314"/>
      <point x="576" y="359"/>
      <point x="665" y="473" type="curve"/>
    </contour>
  </outline>
</glyph>
<glyph name="sixdeva" format="1">
  <advance width="1061"/>
  <unicode hex="096C"/>
  <outline>
    <contour>
      <point x="283" y="1282"/>
      <point x="140" y="1163"/>
      <point x="140" y="994" type="curve" smooth="yes"/>
      <point x="140" y="886"/>
      <point x="199" y="795"/>
      <point x="293" y="722" type="curve"/>
      <point x="196" y="659"/>
      <point x="143" y="570"/>
      <point x="143" y="461" type="curve" smooth="yes"/>
      <point x="143" y="254"/>
      <point x="335" y="41"/>
      <point x="620" y="41" type="curve" smooth="yes"/>
      <point x="695" y="41"/>
      <point x="757" y="56"/>
      <point x="809" y="79" type="curve"/>
      <point x="823" y="55"/>
      <point x="827" y="39"/>
      <point x="827" y="21" type="curve" smooth="yes"/>
      <point x="827" y="-42"/>
      <point x="774" y="-88"/>
      <point x="708" y="-88" type="curve"/>
      <point x="750" y="-185"/>
      <point x="810" y="-252"/>
      <point x="902" y="-252" type="curve" smooth="yes"/>
      <point x="987" y="-252"/>
      <point x="1031" y="-195"/>
      <point x="1031" y="-123" type="curve" smooth="yes"/>
      <point x="1031" y="-63"/>
      <point x="1001" y="11"/>
      <point x="889" y="138" type="curve"/>
      <point x="936" y="176"/>
      <point x="968" y="228"/>
      <point x="968" y="288" type="curve" smooth="yes"/>
      <point x="968" y="382"/>
      <point x="890" y="499"/>
      <point x="773" y="499" type="curve" smooth="yes"/>
      <point x="686" y="499"/>
      <point x="617" y="433"/>
      <point x="617" y="353" type="curve" smooth="yes"/>
      <point x="617" y="319"/>
      <point x="629" y="288"/>
      <point x="651" y="259" type="curve"/>
      <point x="604" y="239"/>
      <point x="550" y="229"/>
      <point x="509" y="229" type="curve" smooth="yes"/>
      <point x="418" y="229"/>
      <point x="355" y="279"/>
      <point x="355" y="360" type="curve" smooth="yes"/>
      <point x="355" y="453"/>
      <point x="438" y="574"/>
      <point x="788" y="606" type="curve"/>
      <point x="802" y="632" type="line"/>
      <point x="660" y="828" type="line"/>
      <point x="560" y="820"/>
      <point x="471" y="802"/>
      <point x="397" y="774" type="curve"/>
      <point x="375" y="805"/>
      <point x="366" y="837"/>
      <point x="366" y="870" type="curve" smooth="yes"/>
      <point x="366" y="972"/>
      <point x="452" y="1063"/>
      <point x="620" y="1063" type="curve" smooth="yes"/>
      <point x="686" y="1063"/>
      <point x="757" y="1049"/>
      <point x="779" y="1042" type="curve"/>
      <point x="770" y="1184"/>
      <point x="664" y="1282"/>
      <point x="483" y="1282" type="curve" smooth="yes"/>
    </contour>
  </outline>
</glyph>
<glyph name="sevendeva" format="1">
  <advance width="1115"/>
  <unicode hex="096D"/>
  <outline>
    <contour>
      <point x="27" y="1260"/>
      <point x="13" y="1180"/>
      <point x="13" y="1052" type="curve" smooth="yes"/>
      <point x="13" y="495"/>
      <point x="278" y="74"/>
      <point x="657" y="74" type="curve" smooth="yes"/>
      <point x="895" y="74"/>
      <point x="1075" y="240"/>
      <point x="1075" y="551" type="curve" smooth="yes"/>
      <point x="1075" y="921"/>
      <point x="879" y="1193"/>
      <point x="643" y="1193" type="curve" smooth="yes"/>
      <point x="491" y="1193"/>
      <point x="382" y="1081"/>
      <point x="382" y="930" type="curve" smooth="yes"/>
      <point x="382" y="708"/>
      <point x="577" y="508"/>
      <point x="821" y="458" type="curve"/>
      <point x="773" y="364"/>
      <point x="691" y="317"/>
      <point x="593" y="317" type="curve" smooth="yes"/>
      <point x="364" y="317"/>
      <point x="186" y="574"/>
      <point x="164" y="1260" type="curve"/>
    </contour>
    <contour>
      <point x="819" y="977"/>
      <point x="871" y="869"/>
      <point x="871" y="699" type="curve" smooth="yes"/>
      <point x="871" y="665"/>
      <point x="869" y="633"/>
      <point x="865" y="603" type="curve"/>
      <point x="704" y="630"/>
      <point x="605" y="715"/>
      <point x="605" y="831" type="curve" smooth="yes"/>
      <point x="605" y="921"/>
      <point x="657" y="977"/>
      <point x="725" y="977" type="curve" smooth="yes"/>
    </contour>
  </outline>
</glyph>
<glyph name="eightdeva" format="1">
  <advance width="1061"/>
  <unicode hex="096E"/>
  <outline>
    <contour>
      <point x="724" y="1211"/>
      <point x="519" y="1030"/>
      <point x="362" y="866" type="curve" smooth="yes"/>
      <point x="126" y="620"/>
      <point x="110" y="525"/>
      <point x="110" y="459" type="curve" smooth="yes"/>
      <point x="110" y="211"/>
      <point x="340" y="39"/>
      <point x="574" y="39" type="curve" smooth="yes"/>
      <point x="799" y="39"/>
      <point x="1001" y="197"/>
      <point x="1001" y="317" type="curve" smooth="yes"/>
      <point x="1001" y="381"/>
      <point x="942" y="460"/>
      <point x="862" y="502" type="curve"/>
      <point x="745" y="336"/>
      <point x="605" y="249"/>
      <point x="478" y="249" type="curve" smooth="yes"/>
      <point x="382" y="249"/>
      <point x="341" y="298"/>
      <point x="341" y="364" type="curve" smooth="yes"/>
      <point x="341" y="438"/>
      <point x="394" y="514"/>
      <point x="548" y="676" type="curve" smooth="yes"/>
      <point x="705" y="841"/>
      <point x="944" y="1071"/>
      <point x="964" y="1090" type="curve"/>
      <point x="752" y="1239" type="line"/>
    </contour>
  </outline>
</glyph>
<glyph name="ninedeva" format="1">
  <advance width="945"/>
  <unicode hex="096F"/>
  <outline>
    <contour>
      <point x="193" y="1280"/>
      <point x="77" y="1155"/>
      <point x="77" y="975" type="curve" smooth="yes"/>
      <point x="77" y="804"/>
      <point x="181" y="672"/>
      <point x="365" y="479" type="curve" smooth="yes"/>
      <point x="475" y="358"/>
      <point x="573" y="263"/>
      <point x="573" y="174" type="curve" smooth="yes"/>
      <point x="573" y="123"/>
      <point x="515" y="67"/>
      <point x="433" y="39" type="curve"/>
      <point x="493" y="-75"/>
      <point x="574" y="-129"/>
      <point x="652" y="-129" type="curve" smooth="yes"/>
      <point x="744" y="-129"/>
      <point x="815" y="-55"/>
      <point x="815" y="49" type="curve" smooth="yes"/>
      <point x="815" y="123"/>
      <point x="779" y="187"/>
      <point x="718" y="268" type="curve" smooth="yes"/>
      <point x="650" y="359"/>
      <point x="567" y="459"/>
      <point x="508" y="529" type="curve"/>
      <point x="721" y="538"/>
      <point x="830" y="658"/>
      <point x="830" y="833" type="curve" smooth="yes"/>
      <point x="830" y="1079"/>
      <point x="615" y="1280"/>
      <point x="392" y="1280" type="curve" smooth="yes"/>
    </contour>
    <contour>
      <point x="567" y="1071"/>
      <point x="623" y="1021"/>
      <point x="623" y="937" type="curve" smooth="yes"/>
      <point x="623" y="832"/>
      <point x="537" y="744"/>
      <point x="349" y="727" type="curve"/>
      <point x="323" y="771"/>
      <point x="312" y="812"/>
      <point x="312" y="872" type="curve" smooth="yes"/>
      <point x="312" y="1001"/>
      <point x="400" y="1071"/>
      <point x="491" y="1071" type="curve" smooth="yes"/>
    </contour>
  </outline>
</glyph>
<glyph name="awdeva" format="1">
  <advance width="2153"/>
  <unicode hex="0975"/>
  <outline>
    <contour>
      <point x="1078" y="2017"/>
      <point x="1067" y="1982"/>
      <point x="1067" y="1947" type="curve" smooth="yes"/>
      <point x="1067" y="1849"/>
      <point x="1172" y="1734"/>
      <point x="1503" y="1687" type="curve" smooth="yes"/>
      <point x="1718" y="1657"/>
      <point x="1758" y="1590"/>
      <point x="1764" y="1488" type="curve"/>
      <point x="1685" y="1572"/>
      <point x="1542" y="1621"/>
      <point x="1312" y="1621" type="curve" smooth="yes"/>
      <point x="1038" y="1621"/>
      <point x="939" y="1708"/>
      <point x="861" y="1846" type="curve"/>
      <point x="844" y="1818"/>
      <point x="833" y="1790"/>
      <point x="833" y="1750" type="curve" smooth="yes"/>
      <point x="833" y="1604"/>
      <point x="986" y="1437"/>
      <point x="1428" y="1437" type="curve" smooth="yes"/>
      <point x="1672" y="1437"/>
      <point x="1725" y="1406"/>
      <point x="1725" y="1343" type="curve" smooth="yes"/>
      <point x="1725" y="1323"/>
      <point x="1720" y="1291"/>
      <point x="1708" y="1261" type="curve"/>
      <point x="1937" y="1261" type="line"/>
      <point x="1917" y="1632"/>
      <point x="1788" y="1804"/>
      <point x="1449" y="1871" type="curve" smooth="yes"/>
      <point x="1203" y="1920"/>
      <point x="1138" y="1952"/>
      <point x="1100" y="2043" type="curve"/>
    </contour>
    <component base="aadeva"/>
  </outline>
</glyph>
<glyph name="yaheavydeva" format="1">
  <advance width="1348"/>
  <unicode hex="097A"/>
  <outline>
    <contour>
      <point x="400" y="1178" type="line"/>
      <point x="909" y="478" type="line"/>
      <point x="1062" y="508" type="line"/>
      <point x="553" y="1208" type="line"/>
    </contour>
    <component base="yadeva"/>
  </outline>
</glyph>
<glyph name="ggadeva" format="1">
  <advance width="1301"/>
  <unicode hex="097B"/>
  <outline>
    <contour>
      <point x="112" y="60" type="line"/>
      <point x="95" y="37" type="line"/>
      <point x="138" y="-93" type="line"/>
      <point x="1114" y="-93" type="line"/>
      <point x="1114" y="60" type="line"/>
    </contour>
    <component base="gadeva"/>
  </outline>
</glyph>
<glyph name="jjadeva" format="1">
  <advance width="1481"/>
  <unicode hex="097C"/>
  <outline>
    <contour>
      <point x="122" y="60" type="line"/>
      <point x="105" y="37" type="line"/>
      <point x="148" y="-93" type="line"/>
      <point x="1294" y="-93" type="line"/>
      <point x="1294" y="60" type="line"/>
    </contour>
    <component base="jadeva"/>
  </outline>
</glyph>
<glyph name="dddadeva" format="1">
  <advance width="1112"/>
  <unicode hex="097E"/>
  <outline>
    <contour>
      <point x="122" y="-40" type="line"/>
      <point x="105" y="-63" type="line"/>
      <point x="148" y="-193" type="line"/>
      <point x="1064" y="-193" type="line"/>
      <point x="1081" y="-170" type="line"/>
      <point x="1038" y="-40" type="line"/>
    </contour>
    <component base="ddadeva"/>
  </outline>
</glyph>
<glyph name="bbadeva" format="1">
  <advance width="1230"/>
  <unicode hex="097F"/>
  <outline>
    <contour>
      <point x="113" y="60" type="line"/>
      <point x="96" y="37" type="line"/>
      <point x="139" y="-93" type="line"/>
      <point x="1043" y="-93" type="line"/>
      <point x="1043" y="60" type="line"/>
    </contour>
    <component base="badeva"/>
  </outline>
</glyph>
<glyph name="aisign_ra_virama.alt1" format="1">
  <advance width="0"/>
  <outline>
    <contour>
      <point x="-809" y="2032"/>
      <point x="-855" y="1973"/>
      <point x="-855" y="1911" type="curve" smooth="yes"/>
      <point x="-855" y="1849"/>
      <point x="-808" y="1781"/>
      <point x="-682" y="1731" type="curve"/>
      <point x="-663" y="1753"/>
      <point x="-632" y="1774"/>
      <point x="-596" y="1774" type="curve" smooth="yes"/>
      <point x="-538" y="1774"/>
      <point x="-488" y="1723"/>
      <point x="-380" y="1446" type="curve"/>
      <point x="-387" y="1440" type="line"/>
      <point x="-619" y="1629"/>
      <point x="-843" y="1742"/>
      <point x="-972" y="1742" type="curve" smooth="yes"/>
      <point x="-1051" y="1742"/>
      <point x="-1129" y="1700"/>
      <point x="-1129" y="1612" type="curve" smooth="yes"/>
      <point x="-1129" y="1534"/>
      <point x="-1068" y="1463"/>
      <point x="-933" y="1424" type="curve"/>
      <point x="-907" y="1473"/>
      <point x="-857" y="1497"/>
      <point x="-804" y="1497" type="curve" smooth="yes"/>
      <point x="-717" y="1497"/>
      <point x="-582" y="1434"/>
      <point x="-442" y="1330" type="curve"/>
      <point x="-442" y="1249" type="line"/>
      <point x="-201" y="1249" type="line"/>
      <point x="-201" y="1330" type="line"/>
      <point x="-227" y="1427"/>
      <point x="-239" y="1469"/>
      <point x="-239" y="1522" type="curve" smooth="yes"/>
      <point x="-239" y="1652"/>
      <point x="-162" y="1715"/>
      <point x="-34" y="1715" type="curve" smooth="yes"/>
      <point x="31" y="1715"/>
      <point x="88" y="1699"/>
      <point x="140" y="1668" type="curve"/>
      <point x="143" y="1678"/>
      <point x="144" y="1688"/>
      <point x="144" y="1698" type="curve" smooth="yes"/>
      <point x="144" y="1813"/>
      <point x="22" y="1924"/>
      <point x="-138" y="1924" type="curve" smooth="yes"/>
      <point x="-251" y="1924"/>
      <point x="-338" y="1868"/>
      <point x="-384" y="1781" type="curve"/>
      <point x="-488" y="1962"/>
      <point x="-596" y="2032"/>
      <point x="-707" y="2032" type="curve" smooth="yes"/>
    </contour>
  </outline>
</glyph>
<glyph name="aisign_ra_virama_anusvara" format="1">
  <advance width="0"/>
  <outline>
    <contour>
      <point x="-83" y="1623"/>
      <point x="-138" y="1569"/>
      <point x="-138" y="1503" type="curve" smooth="yes"/>
      <point x="-138" y="1437"/>
      <point x="-83" y="1382"/>
      <point x="-16" y="1382" type="curve" smooth="yes"/>
      <point x="50" y="1382"/>
      <point x="104" y="1437"/>
      <point x="104" y="1503" type="curve" smooth="yes"/>
      <point x="104" y="1569"/>
      <point x="50" y="1623"/>
      <point x="-16" y="1623" type="curve" smooth="yes"/>
    </contour>
    <component base="aisign_ra_virama.alt1"/>
  </outline>
</glyph>
<glyph name="aisigndeva_anusvaradeva" format="1">
  <advance width="0"/>
  <outline>
    <component base="aisigndeva"/>
    <component base="anusvaradeva" xOffset="231"/>
    <contour>
      <point x="-131" y="665" type="move" name="_class0"/>
    </contour>
  </outline>
</glyph>
<glyph name="badeva_viramadeva_radeva" format="1">
  <advance width="1230"/>
  <outline>
    <contour>
      <point x="213" y="907" type="line"/>
      <point x="672" y="367" type="line"/>
      <point x="853" y="387" type="line"/>
      <point x="394" y="937" type="line"/>
    </contour>
    <component base="vadeva_viramadeva_radeva"/>
  </outline>
</glyph>
<glyph name="bhadeva_viramadeva" format="1">
  <advance width="947"/>
  <outline>
    <contour>
      <point x="164" y="1387"/>
      <point x="98" y="1305"/>
      <point x="98" y="1193" type="curve" smooth="yes"/>
      <point x="98" y="1019"/>
      <point x="258" y="896"/>
      <point x="370" y="896" type="curve" smooth="yes"/>
      <point x="413" y="896"/>
      <point x="441" y="914"/>
      <point x="459" y="932" type="curve"/>
      <point x="353" y="989"/>
      <point x="318" y="1038"/>
      <point x="318" y="1101" type="curve" smooth="yes"/>
      <point x="318" y="1161"/>
      <point x="350" y="1200"/>
      <point x="408" y="1200" type="curve" smooth="yes"/>
      <point x="480" y="1200"/>
      <point x="497" y="1140"/>
      <point x="497" y="1069" type="curve" smooth="yes"/>
      <point x="497" y="672" type="line"/>
      <point x="412" y="669"/>
      <point x="352" y="650"/>
      <point x="352" y="576" type="curve" smooth="yes"/>
      <point x="352" y="430"/>
      <point x="584" y="244"/>
      <point x="677" y="244" type="curve" smooth="yes"/>
      <point x="710" y="244"/>
      <point x="735" y="268"/>
      <point x="735" y="323" type="curve" smooth="yes"/>
      <point x="735" y="468" type="line"/>
      <point x="1247" y="468" type="line"/>
      <point x="1247" y="673" type="line"/>
      <point x="735" y="673" type="line"/>
      <point x="735" y="913" type="line" smooth="yes"/>
      <point x="735" y="1156"/>
      <point x="523" y="1387"/>
      <point x="298" y="1387" type="curve" smooth="yes"/>
    </contour>
    <contour>
      <point x="768" y="1330" type="line"/>
      <point x="751" y="1307" type="line"/>
      <point x="804" y="1137" type="line"/>
      <point x="1029" y="1137" type="line"/>
      <point x="1046" y="1160" type="line"/>
      <point x="993" y="1330" type="line"/>
    </contour>
  </outline>
</glyph>
<glyph name="bhadeva_viramadeva_radeva" format="1">
  <advance width="1493"/>
  <outline>
    <contour>
      <point x="164" y="1387"/>
      <point x="98" y="1305"/>
      <point x="98" y="1193" type="curve" smooth="yes"/>
      <point x="98" y="1019"/>
      <point x="258" y="896"/>
      <point x="370" y="896" type="curve" smooth="yes"/>
      <point x="413" y="896"/>
      <point x="441" y="914"/>
      <point x="459" y="932" type="curve"/>
      <point x="353" y="989"/>
      <point x="318" y="1038"/>
      <point x="318" y="1101" type="curve" smooth="yes"/>
      <point x="318" y="1161"/>
      <point x="350" y="1200"/>
      <point x="408" y="1200" type="curve" smooth="yes"/>
      <point x="480" y="1200"/>
      <point x="497" y="1140"/>
      <point x="497" y="1069" type="curve" smooth="yes"/>
      <point x="497" y="732" type="line"/>
      <point x="412" y="729"/>
      <point x="352" y="710"/>
      <point x="352" y="636" type="curve" smooth="yes"/>
      <point x="352" y="494"/>
      <point x="584" y="314"/>
      <point x="677" y="314" type="curve" smooth="yes"/>
      <point x="710" y="314"/>
      <point x="735" y="338"/>
      <point x="735" y="393" type="curve" smooth="yes"/>
      <point x="735" y="528" type="line"/>
      <point x="1045" y="528" type="line"/>
      <point x="563" y="92" type="line"/>
      <point x="563" y="64" type="line"/>
      <point x="734" y="-74" type="line"/>
      <point x="1066" y="265" type="line"/>
      <point x="1066" y="-21" type="line"/>
      <point x="1284" y="-57" type="line"/>
      <point x="1306" y="-39" type="line"/>
      <point x="1306" y="1137" type="line"/>
      <point x="1529" y="1137" type="line"/>
      <point x="1546" y="1160" type="line"/>
      <point x="1493" y="1330" type="line"/>
      <point x="768" y="1330" type="line"/>
      <point x="751" y="1307" type="line"/>
      <point x="804" y="1137" type="line"/>
      <point x="1066" y="1137" type="line"/>
      <point x="1066" y="733" type="line"/>
      <point x="735" y="733" type="line"/>
      <point x="735" y="913" type="line" smooth="yes"/>
      <point x="735" y="1156"/>
      <point x="523" y="1387"/>
      <point x="298" y="1387" type="curve" smooth="yes"/>
    </contour>
  </outline>
</glyph>
<glyph name="cadeva_viramadeva" format="1">
  <advance width="845"/>
  <outline>
    <contour>
      <point x="82" y="953" type="line"/>
      <point x="65" y="930" type="line"/>
      <point x="118" y="760" type="line"/>
      <point x="305" y="760" type="line"/>
      <point x="311" y="751" type="line"/>
      <point x="291" y="708"/>
      <point x="279" y="661"/>
      <point x="279" y="612" type="curve" smooth="yes"/>
      <point x="279" y="410"/>
      <point x="478" y="201"/>
      <point x="747" y="201" type="curve" smooth="yes"/>
      <point x="950" y="201"/>
      <point x="1125" y="319"/>
      <point x="1211" y="546" type="curve"/>
      <point x="1014" y="650" type="line"/>
      <point x="959" y="507"/>
      <point x="825" y="391"/>
      <point x="655" y="391" type="curve" smooth="yes"/>
      <point x="544" y="391"/>
      <point x="491" y="440"/>
      <point x="491" y="522" type="curve" smooth="yes"/>
      <point x="491" y="646"/>
      <point x="612" y="760"/>
      <point x="801" y="760" type="curve" smooth="yes"/>
      <point x="832" y="760" type="line"/>
      <point x="849" y="783" type="line"/>
      <point x="796" y="953" type="line"/>
    </contour>
    <contour>
      <point x="-36" y="1330" type="line"/>
      <point x="-53" y="1307" type="line"/>
      <point x="0" y="1137" type="line"/>
      <point x="927" y="1137" type="line"/>
      <point x="944" y="1160" type="line"/>
      <point x="891" y="1330" type="line"/>
    </contour>
  </outline>
</glyph>
<glyph name="ddadeva_viramadeva_yadeva" format="1">
  <advance width="2318"/>
  <outline>
    <contour>
      <point x="-36" y="1330" type="line"/>
      <point x="-53" y="1307" type="line"/>
      <point x="0" y="1137" type="line"/>
      <point x="708" y="1137" type="line"/>
      <point x="708" y="1036" type="line" smooth="yes"/>
      <point x="708" y="1023"/>
      <point x="701" y="1016"/>
      <point x="688" y="1016" type="curve" smooth="yes"/>
      <point x="357" y="1016" type="line" smooth="yes"/>
      <point x="224" y="1016"/>
      <point x="164" y="963"/>
      <point x="164" y="876" type="curve" smooth="yes"/>
      <point x="164" y="711"/>
      <point x="381" y="472"/>
      <point x="581" y="472" type="curve" smooth="yes"/>
      <point x="635" y="472"/>
      <point x="739" y="489"/>
      <point x="773" y="489" type="curve" smooth="yes"/>
      <point x="817" y="489"/>
      <point x="830" y="460"/>
      <point x="830" y="425" type="curve" smooth="yes"/>
      <point x="830" y="330"/>
      <point x="735" y="270"/>
      <point x="615" y="270" type="curve" smooth="yes"/>
      <point x="440" y="270"/>
      <point x="266" y="397"/>
      <point x="143" y="636" type="curve"/>
      <point x="99" y="619"/>
      <point x="67" y="589"/>
      <point x="71" y="535" type="curve" smooth="yes"/>
      <point x="81" y="398"/>
      <point x="324" y="39"/>
      <point x="694" y="39" type="curve" smooth="yes"/>
      <point x="886" y="39"/>
      <point x="1020" y="136"/>
      <point x="1020" y="319" type="curve" smooth="yes"/>
      <point x="1020" y="517"/>
      <point x="863" y="716"/>
      <point x="691" y="716" type="curve" smooth="yes"/>
      <point x="647" y="716"/>
      <point x="530" y="703"/>
      <point x="477" y="703" type="curve" smooth="yes"/>
      <point x="403" y="703"/>
      <point x="376" y="729"/>
      <point x="376" y="771" type="curve" smooth="yes"/>
      <point x="376" y="817"/>
      <point x="408" y="845"/>
      <point x="519" y="845" type="curve" smooth="yes"/>
      <point x="1331" y="845" type="line"/>
      <point x="1391" y="842"/>
      <point x="1412" y="823"/>
      <point x="1412" y="798" type="curve" smooth="yes"/>
      <point x="1412" y="749"/>
      <point x="1332" y="697"/>
      <point x="1109" y="639" type="curve"/>
      <point x="1097" y="613" type="line"/>
      <point x="1250" y="279"/>
      <point x="1478" y="146"/>
      <point x="1682" y="146" type="curve" smooth="yes"/>
      <point x="1735" y="146"/>
      <point x="1780" y="155"/>
      <point x="1822" y="170" type="curve"/>
      <point x="1831" y="164" type="line"/>
      <point x="1831" y="-6" type="line"/>
      <point x="2048" y="-42" type="line"/>
      <point x="2070" y="-24" type="line"/>
      <point x="2071" y="1137" type="line"/>
      <point x="2354" y="1137" type="line"/>
      <point x="2371" y="1160" type="line"/>
      <point x="2318" y="1330" type="line"/>
    </contour>
  </outline>
</glyph>
<glyph name="esign_ra_virama_anusvara" format="1">
  <advance width="0"/>
  <outline>
    <contour>
      <point x="-183" y="1623"/>
      <point x="-238" y="1569"/>
      <point x="-238" y="1503" type="curve" smooth="yes"/>
      <point x="-238" y="1437"/>
      <point x="-183" y="1382"/>
      <point x="-116" y="1382" type="curve" smooth="yes"/>
      <point x="-50" y="1382"/>
      <point x="4" y="1437"/>
      <point x="4" y="1503" type="curve" smooth="yes"/>
      <point x="4" y="1569"/>
      <point x="-50" y="1623"/>
      <point x="-116" y="1623" type="curve" smooth="yes"/>
    </contour>
    <component base="esign_ra_virama.alt1"/>
    <contour>
      <point x="-125" y="665" type="move" name="_class0"/>
    </contour>
  </outline>
</glyph>
<glyph name="esigndeva_anusvaradeva" format="1">
  <advance width="0"/>
  <outline>
    <component base="esigndeva"/>
    <component base="anusvaradeva" xOffset="115"/>
    <contour>
      <point x="-125" y="665" type="move" name="_class0"/>
    </contour>
  </outline>
</glyph>
<glyph name="gadeva_viramadeva" format="1">
  <advance width="694"/>
  <outline>
    <contour>
      <point x="-36" y="1330" type="line"/>
      <point x="-53" y="1307" type="line"/>
      <point x="0" y="1137" type="line"/>
      <point x="284" y="1137" type="line"/>
      <point x="284" y="676" type="line"/>
      <point x="169" y="676" type="line" smooth="yes"/>
      <point x="99" y="676"/>
      <point x="70" y="649"/>
      <point x="70" y="603" type="curve" smooth="yes"/>
      <point x="70" y="517"/>
      <point x="268" y="303"/>
      <point x="391" y="303" type="curve" smooth="yes"/>
      <point x="479" y="303"/>
      <point x="519" y="344"/>
      <point x="519" y="514" type="curve" smooth="yes"/>
      <point x="519" y="1137" type="line"/>
      <point x="857" y="1137" type="line"/>
      <point x="874" y="1160" type="line"/>
      <point x="821" y="1330" type="line"/>
    </contour>
  </outline>
</glyph>
<glyph name="gadeva_viramadeva_radeva" format="1">
  <advance width="1301"/>
  <outline>
    <contour>
      <point x="-36" y="1330" type="line"/>
      <point x="-53" y="1307" type="line"/>
      <point x="0" y="1137" type="line"/>
      <point x="284" y="1137" type="line"/>
      <point x="284" y="726" type="line"/>
      <point x="169" y="726" type="line" smooth="yes"/>
      <point x="99" y="726"/>
      <point x="70" y="699"/>
      <point x="70" y="653" type="curve" smooth="yes"/>
      <point x="70" y="567"/>
      <point x="268" y="353"/>
      <point x="391" y="353" type="curve" smooth="yes"/>
      <point x="479" y="353"/>
      <point x="519" y="394"/>
      <point x="519" y="564" type="curve" smooth="yes"/>
      <point x="519" y="1137" type="line"/>
      <point x="874" y="1137" type="line"/>
      <point x="874" y="580" type="line"/>
      <point x="303" y="91" type="line"/>
      <point x="303" y="63" type="line"/>
      <point x="475" y="-74" type="line"/>
      <point x="874" y="270" type="line"/>
      <point x="874" y="-21" type="line"/>
      <point x="1092" y="-57" type="line"/>
      <point x="1114" y="-39" type="line"/>
      <point x="1114" y="1137" type="line"/>
      <point x="1337" y="1137" type="line"/>
      <point x="1354" y="1160" type="line"/>
      <point x="1301" y="1330" type="line"/>
    </contour>
  </outline>
</glyph>
<glyph name="iisign_ra_virama_anusvara" format="1">
  <advance width="653"/>
  <outline>
    <contour>
      <point x="247" y="1915"/>
      <point x="140" y="1785"/>
      <point x="140" y="1633" type="curve" smooth="yes"/>
      <point x="140" y="1530"/>
      <point x="189" y="1419"/>
      <point x="270" y="1329" type="curve"/>
      <point x="270" y="1220" type="line"/>
      <point x="398" y="1220" type="line"/>
      <point x="398" y="1330" type="line"/>
      <point x="360" y="1387"/>
      <point x="338" y="1464"/>
      <point x="338" y="1527" type="curve" smooth="yes"/>
      <point x="338" y="1641"/>
      <point x="411" y="1706"/>
      <point x="527" y="1706" type="curve" smooth="yes"/>
      <point x="583" y="1706"/>
      <point x="644" y="1691"/>
      <point x="697" y="1659" type="curve"/>
      <point x="700" y="1669"/>
      <point x="701" y="1679"/>
      <point x="701" y="1689" type="curve" smooth="yes"/>
      <point x="701" y="1804"/>
      <point x="579" y="1915"/>
      <point x="420" y="1915" type="curve" smooth="yes"/>
    </contour>
    <contour>
      <point x="489" y="1623"/>
      <point x="434" y="1569"/>
      <point x="434" y="1503" type="curve" smooth="yes"/>
      <point x="434" y="1437"/>
      <point x="489" y="1382"/>
      <point x="556" y="1382" type="curve" smooth="yes"/>
      <point x="622" y="1382"/>
      <point x="676" y="1437"/>
      <point x="676" y="1503" type="curve" smooth="yes"/>
      <point x="676" y="1569"/>
      <point x="622" y="1623"/>
      <point x="556" y="1623" type="curve" smooth="yes"/>
    </contour>
    <component base="iisigndeva"/>
  </outline>
</glyph>
<glyph name="iisigndeva_ra_virama" format="1">
  <advance width="653"/>
  <outline>
    <contour>
      <point x="247" y="1915"/>
      <point x="140" y="1785"/>
      <point x="140" y="1633" type="curve" smooth="yes"/>
      <point x="140" y="1530"/>
      <point x="189" y="1419"/>
      <point x="270" y="1329" type="curve"/>
      <point x="270" y="1220" type="line"/>
      <point x="398" y="1220" type="line"/>
      <point x="398" y="1330" type="line"/>
      <point x="360" y="1387"/>
      <point x="338" y="1464"/>
      <point x="338" y="1527" type="curve" smooth="yes"/>
      <point x="338" y="1641"/>
      <point x="411" y="1706"/>
      <point x="527" y="1706" type="curve" smooth="yes"/>
      <point x="583" y="1706"/>
      <point x="644" y="1691"/>
      <point x="697" y="1659" type="curve"/>
      <point x="700" y="1669"/>
      <point x="701" y="1679"/>
      <point x="701" y="1689" type="curve" smooth="yes"/>
      <point x="701" y="1804"/>
      <point x="579" y="1915"/>
      <point x="420" y="1915" type="curve" smooth="yes"/>
    </contour>
    <component base="iisigndeva"/>
  </outline>
</glyph>
<glyph name="jadeva_viramadeva" format="1">
  <advance width="902"/>
  <outline>
    <contour>
      <point x="114" y="934"/>
      <point x="89" y="892"/>
      <point x="90" y="811" type="curve" smooth="yes"/>
      <point x="93" y="627"/>
      <point x="245" y="149"/>
      <point x="596" y="149" type="curve" smooth="yes"/>
      <point x="767" y="149"/>
      <point x="902" y="262"/>
      <point x="902" y="446" type="curve" smooth="yes"/>
      <point x="902" y="539"/>
      <point x="867" y="640"/>
      <point x="806" y="720" type="curve"/>
      <point x="811" y="730" type="line"/>
      <point x="1202" y="730" type="line"/>
      <point x="1142" y="923" type="line"/>
      <point x="458" y="923" type="line"/>
      <point x="441" y="900" type="line"/>
      <point x="494" y="730" type="line"/>
      <point x="622" y="730"/>
      <point x="688" y="649"/>
      <point x="688" y="556" type="curve" smooth="yes"/>
      <point x="688" y="455"/>
      <point x="611" y="399"/>
      <point x="523" y="399" type="curve" smooth="yes"/>
      <point x="374" y="399"/>
      <point x="267" y="557"/>
      <point x="211" y="943" type="curve"/>
    </contour>
    <contour>
      <point x="-36" y="1330" type="line"/>
      <point x="-53" y="1307" type="line"/>
      <point x="0" y="1137" type="line"/>
      <point x="1017" y="1137" type="line"/>
      <point x="1034" y="1160" type="line"/>
      <point x="981" y="1330" type="line"/>
    </contour>
  </outline>
</glyph>
<glyph name="kadeva_viramadeva_radeva" format="1">
  <advance width="1622"/>
  <outline>
    <contour>
      <point x="-36" y="1330" type="line"/>
      <point x="-53" y="1307" type="line"/>
      <point x="0" y="1137" type="line"/>
      <point x="733" y="1137" type="line"/>
      <point x="733" y="893" type="line"/>
      <point x="723" y="888" type="line"/>
      <point x="631" y="973"/>
      <point x="521" y="1007"/>
      <point x="427" y="1007" type="curve" smooth="yes"/>
      <point x="239" y="1007"/>
      <point x="99" y="869"/>
      <point x="99" y="686" type="curve" smooth="yes"/>
      <point x="99" y="507"/>
      <point x="235" y="348"/>
      <point x="391" y="275" type="curve"/>
      <point x="184" y="92" type="line"/>
      <point x="184" y="64" type="line"/>
      <point x="355" y="-74" type="line"/>
      <point x="724" y="264" type="line"/>
      <point x="733" y="258" type="line"/>
      <point x="733" y="-21" type="line"/>
      <point x="951" y="-57" type="line"/>
      <point x="973" y="-39" type="line"/>
      <point x="973" y="468" type="line" smooth="yes"/>
      <point x="973" y="619"/>
      <point x="1095" y="735"/>
      <point x="1218" y="735" type="curve" smooth="yes"/>
      <point x="1282" y="735"/>
      <point x="1331" y="704"/>
      <point x="1331" y="619" type="curve" smooth="yes"/>
      <point x="1331" y="502"/>
      <point x="1240" y="340"/>
      <point x="1107" y="273" type="curve"/>
      <point x="1169" y="181"/>
      <point x="1252" y="140"/>
      <point x="1318" y="140" type="curve" smooth="yes"/>
      <point x="1426" y="140"/>
      <point x="1536" y="248"/>
      <point x="1536" y="455" type="curve" smooth="yes"/>
      <point x="1536" y="739"/>
      <point x="1330" y="926"/>
      <point x="1127" y="926" type="curve" smooth="yes"/>
      <point x="1068" y="926"/>
      <point x="1022" y="910"/>
      <point x="982" y="879" type="curve"/>
      <point x="973" y="885" type="line"/>
      <point x="973" y="1137" type="line"/>
      <point x="1658" y="1137" type="line"/>
      <point x="1675" y="1160" type="line"/>
      <point x="1622" y="1330" type="line"/>
    </contour>
    <contour>
      <point x="647" y="793"/>
      <point x="733" y="709"/>
      <point x="733" y="612" type="curve" smooth="yes"/>
      <point x="733" y="573" type="line"/>
      <point x="604" y="456"/>
      <point x="559" y="428"/>
      <point x="497" y="428" type="curve" smooth="yes"/>
      <point x="401" y="428"/>
      <point x="334" y="495"/>
      <point x="334" y="595" type="curve" smooth="yes"/>
      <point x="334" y="706"/>
      <point x="416" y="793"/>
      <point x="533" y="793" type="curve" smooth="yes"/>
    </contour>
  </outline>
</glyph>
<glyph name="khadeva_viramadeva_radeva" format="1">
  <advance width="1696"/>
  <outline>
    <contour>
      <point x="-36" y="1330" type="line"/>
      <point x="-53" y="1307" type="line"/>
      <point x="0" y="1137" type="line"/>
      <point x="339" y="1137" type="line"/>
      <point x="369" y="1058"/>
      <point x="383" y="980"/>
      <point x="383" y="910" type="curve" smooth="yes"/>
      <point x="383" y="842"/>
      <point x="370" y="790"/>
      <point x="340" y="751" type="curve"/>
      <point x="292" y="770"/>
      <point x="247" y="779"/>
      <point x="209" y="779" type="curve" smooth="yes"/>
      <point x="126" y="779"/>
      <point x="78" y="736"/>
      <point x="78" y="656" type="curve" smooth="yes"/>
      <point x="78" y="468"/>
      <point x="342" y="198"/>
      <point x="589" y="99" type="curve"/>
      <point x="472" y="22" type="line"/>
      <point x="475" y="10" type="line"/>
      <point x="655" y="-134" type="line"/>
      <point x="1239" y="285" type="line"/>
      <point x="1248" y="278" type="line"/>
      <point x="1248" y="-21" type="line"/>
      <point x="1466" y="-57" type="line"/>
      <point x="1488" y="-39" type="line"/>
      <point x="1488" y="1137" type="line"/>
      <point x="1732" y="1137" type="line"/>
      <point x="1749" y="1160" type="line"/>
      <point x="1696" y="1330" type="line"/>
    </contour>
    <contour>
      <point x="1248" y="887" type="line"/>
      <point x="1238" y="883" type="line"/>
      <point x="1171" y="947"/>
      <point x="1075" y="986"/>
      <point x="975" y="986" type="curve" smooth="yes"/>
      <point x="806" y="986"/>
      <point x="688" y="873"/>
      <point x="688" y="703" type="curve" smooth="yes"/>
      <point x="688" y="545"/>
      <point x="790" y="397"/>
      <point x="925" y="321" type="curve"/>
      <point x="776" y="223" type="line"/>
      <point x="595" y="262"/>
      <point x="457" y="332"/>
      <point x="350" y="433" type="curve"/>
      <point x="537" y="490"/>
      <point x="597" y="630"/>
      <point x="597" y="776" type="curve" smooth="yes"/>
      <point x="597" y="893"/>
      <point x="558" y="1014"/>
      <point x="506" y="1128" type="curve"/>
      <point x="512" y="1137" type="line"/>
      <point x="1248" y="1137" type="line"/>
    </contour>
    <contour>
      <point x="1176" y="784"/>
      <point x="1248" y="699"/>
      <point x="1248" y="611" type="curve" smooth="yes"/>
      <point x="1248" y="538" type="line"/>
      <point x="1155" y="469"/>
      <point x="1100" y="448"/>
      <point x="1056" y="448" type="curve" smooth="yes"/>
      <point x="961" y="448"/>
      <point x="895" y="529"/>
      <point x="895" y="619" type="curve" smooth="yes"/>
      <point x="895" y="709"/>
      <point x="961" y="784"/>
      <point x="1065" y="784" type="curve" smooth="yes"/>
    </contour>
  </outline>
</glyph>
<glyph name="madeva_viramadeva_radeva" format="1">
  <advance width="1246"/>
  <outline>
    <contour>
      <point x="-36" y="1330" type="line"/>
      <point x="-53" y="1307" type="line"/>
      <point x="0" y="1137" type="line"/>
      <point x="200" y="1137" type="line"/>
      <point x="200" y="712" type="line"/>
      <point x="85" y="708"/>
      <point x="55" y="670"/>
      <point x="55" y="617" type="curve" smooth="yes"/>
      <point x="55" y="479"/>
      <point x="287" y="304"/>
      <point x="380" y="304" type="curve" smooth="yes"/>
      <point x="413" y="304"/>
      <point x="438" y="327"/>
      <point x="438" y="383" type="curve" smooth="yes"/>
      <point x="438" y="508" type="line"/>
      <point x="788" y="508" type="line"/>
      <point x="276" y="92" type="line"/>
      <point x="276" y="64" type="line"/>
      <point x="447" y="-74" type="line"/>
      <point x="819" y="265" type="line"/>
      <point x="819" y="-21" type="line"/>
      <point x="1037" y="-57" type="line"/>
      <point x="1059" y="-39" type="line"/>
      <point x="1059" y="1137" type="line"/>
      <point x="1282" y="1137" type="line"/>
      <point x="1299" y="1160" type="line"/>
      <point x="1246" y="1330" type="line"/>
    </contour>
    <contour>
      <point x="819" y="713" type="line"/>
      <point x="438" y="713" type="line"/>
      <point x="438" y="1137" type="line"/>
      <point x="819" y="1137" type="line"/>
    </contour>
  </outline>
</glyph>
<glyph name="nadeva_viramadeva" format="1">
  <advance width="615"/>
  <outline>
    <contour>
      <point x="236" y="863" type="line" smooth="yes"/>
      <point x="136" y="863"/>
      <point x="45" y="848"/>
      <point x="45" y="765" type="curve" smooth="yes"/>
      <point x="45" y="635"/>
      <point x="266" y="424"/>
      <point x="364" y="424" type="curve" smooth="yes"/>
      <point x="397" y="424"/>
      <point x="428" y="447"/>
      <point x="428" y="503" type="curve" smooth="yes"/>
      <point x="428" y="658" type="line"/>
      <point x="895" y="658" type="line"/>
      <point x="895" y="863" type="line"/>
    </contour>
    <contour>
      <point x="-36" y="1330" type="line"/>
      <point x="-53" y="1307" type="line"/>
      <point x="0" y="1137" type="line"/>
      <point x="717" y="1137" type="line"/>
      <point x="734" y="1160" type="line"/>
      <point x="681" y="1330" type="line"/>
    </contour>
  </outline>
</glyph>
<glyph name="nyadeva_viramadeva" format="1">
  <advance width="1067"/>
  <outline>
    <contour>
      <point x="404" y="994"/>
      <point x="331" y="915"/>
      <point x="331" y="840" type="curve" smooth="yes"/>
      <point x="331" y="765"/>
      <point x="388" y="686"/>
      <point x="512" y="663" type="curve"/>
      <point x="551" y="729"/>
      <point x="605" y="767"/>
      <point x="676" y="767" type="curve" smooth="yes"/>
      <point x="748" y="767"/>
      <point x="795" y="727"/>
      <point x="795" y="627" type="curve" smooth="yes"/>
      <point x="795" y="493"/>
      <point x="711" y="367"/>
      <point x="546" y="367" type="curve" smooth="yes"/>
      <point x="364" y="367"/>
      <point x="240" y="520"/>
      <point x="183" y="860" type="curve"/>
      <point x="102" y="860"/>
      <point x="81" y="817"/>
      <point x="81" y="743" type="curve" smooth="yes"/>
      <point x="81" y="526"/>
      <point x="266" y="145"/>
      <point x="642" y="145" type="curve" smooth="yes"/>
      <point x="877" y="145"/>
      <point x="994" y="295"/>
      <point x="1003" y="471" type="curve"/>
      <point x="1012" y="476" type="line"/>
      <point x="1062" y="443"/>
      <point x="1114" y="423"/>
      <point x="1171" y="423" type="curve" smooth="yes"/>
      <point x="1290" y="423"/>
      <point x="1384" y="500"/>
      <point x="1448" y="644" type="curve"/>
      <point x="1224" y="787" type="line"/>
      <point x="1184" y="690"/>
      <point x="1120" y="646"/>
      <point x="1034" y="646" type="curve" smooth="yes"/>
      <point x="1011" y="646"/>
      <point x="991" y="648"/>
      <point x="973" y="655" type="curve"/>
      <point x="902" y="846"/>
      <point x="717" y="994"/>
      <point x="536" y="994" type="curve" smooth="yes"/>
    </contour>
    <contour>
      <point x="-36" y="1330" type="line"/>
      <point x="-53" y="1307" type="line"/>
      <point x="0" y="1137" type="line"/>
      <point x="1137" y="1137" type="line"/>
      <point x="1154" y="1160" type="line"/>
      <point x="1101" y="1330" type="line"/>
    </contour>
  </outline>
</glyph>
<glyph name="osign_ra_virama_anusvara" format="1">
  <advance width="653"/>
  <outline>
    <contour>
      <point x="444" y="1623"/>
      <point x="389" y="1569"/>
      <point x="389" y="1503" type="curve" smooth="yes"/>
      <point x="389" y="1437"/>
      <point x="444" y="1382"/>
      <point x="511" y="1382" type="curve" smooth="yes"/>
      <point x="577" y="1382"/>
      <point x="631" y="1437"/>
      <point x="631" y="1503" type="curve" smooth="yes"/>
      <point x="631" y="1569"/>
      <point x="577" y="1623"/>
      <point x="511" y="1623" type="curve" smooth="yes"/>
    </contour>
    <component base="aasigndeva"/>
    <component base="esign_ra_virama.alt1" xOffset="627"/>
  </outline>
</glyph>
<glyph name="padeva_viramadeva" format="1">
  <advance width="665"/>
  <outline>
    <contour>
      <point x="-36" y="1330" type="line"/>
      <point x="-53" y="1307" type="line"/>
      <point x="0" y="1137" type="line"/>
      <point x="129" y="1137" type="line"/>
      <point x="129" y="755" type="line" smooth="yes"/>
      <point x="129" y="506"/>
      <point x="340" y="291"/>
      <point x="564" y="291" type="curve" smooth="yes"/>
      <point x="744" y="291"/>
      <point x="898" y="410"/>
      <point x="976" y="600" type="curve"/>
      <point x="784" y="730" type="line"/>
      <point x="733" y="583"/>
      <point x="616" y="483"/>
      <point x="498" y="483" type="curve" smooth="yes"/>
      <point x="407" y="483"/>
      <point x="359" y="542"/>
      <point x="359" y="650" type="curve" smooth="yes"/>
      <point x="359" y="1137" type="line"/>
      <point x="707" y="1137" type="line"/>
      <point x="724" y="1160" type="line"/>
      <point x="671" y="1330" type="line"/>
    </contour>
  </outline>
</glyph>
<glyph name="padeva_viramadeva_radeva" format="1">
  <advance width="1191"/>
  <outline>
    <contour>
      <point x="-36" y="1330" type="line"/>
      <point x="-53" y="1307" type="line"/>
      <point x="0" y="1137" type="line"/>
      <point x="149" y="1137" type="line"/>
      <point x="149" y="755" type="line" smooth="yes"/>
      <point x="149" y="576"/>
      <point x="257" y="415"/>
      <point x="402" y="338" type="curve"/>
      <point x="73" y="92" type="line"/>
      <point x="73" y="64" type="line"/>
      <point x="244" y="-74" type="line"/>
      <point x="745" y="322" type="line"/>
      <point x="755" y="326" type="line"/>
      <point x="764" y="320" type="line"/>
      <point x="764" y="-21" type="line"/>
      <point x="982" y="-57" type="line"/>
      <point x="1004" y="-39" type="line"/>
      <point x="1004" y="1137" type="line"/>
      <point x="1227" y="1137" type="line"/>
      <point x="1244" y="1160" type="line"/>
      <point x="1191" y="1330" type="line"/>
    </contour>
    <contour>
      <point x="764" y="617" type="line"/>
      <point x="648" y="511"/>
      <point x="587" y="483"/>
      <point x="516" y="483" type="curve" smooth="yes"/>
      <point x="428" y="483"/>
      <point x="379" y="542"/>
      <point x="379" y="650" type="curve" smooth="yes"/>
      <point x="379" y="1137" type="line"/>
      <point x="764" y="1137" type="line"/>
    </contour>
  </outline>
</glyph>
<glyph name="radeva_viramadeva_anusvaradeva" format="1">
  <advance width="0"/>
  <outline>
    <contour>
      <point x="-193" y="1623"/>
      <point x="-248" y="1569"/>
      <point x="-248" y="1503" type="curve" smooth="yes"/>
      <point x="-248" y="1437"/>
      <point x="-193" y="1382"/>
      <point x="-126" y="1382" type="curve" smooth="yes"/>
      <point x="-60" y="1382"/>
      <point x="-6" y="1437"/>
      <point x="-6" y="1503" type="curve" smooth="yes"/>
      <point x="-6" y="1569"/>
      <point x="-60" y="1623"/>
      <point x="-126" y="1623" type="curve" smooth="yes"/>
    </contour>
    <component base="radeva_viramadeva"/>
  </outline>
</glyph>
<glyph name="shadeva_viramadeva_radeva" format="1">
  <advance width="1540"/>
  <outline>
    <contour>
      <point x="336" y="1387"/>
      <point x="233" y="1282"/>
      <point x="233" y="1123" type="curve" smooth="yes"/>
      <point x="233" y="1002"/>
      <point x="293" y="877"/>
      <point x="393" y="769" type="curve"/>
      <point x="305" y="708"/>
      <point x="194" y="641"/>
      <point x="60" y="569" type="curve"/>
      <point x="249" y="393" type="line"/>
      <point x="393" y="470"/>
      <point x="510" y="539"/>
      <point x="603" y="604" type="curve"/>
      <point x="662" y="570"/>
      <point x="726" y="541"/>
      <point x="794" y="518" type="curve"/>
      <point x="672" y="424"/>
      <point x="540" y="319"/>
      <point x="407" y="208" type="curve"/>
      <point x="616" y="28" type="line"/>
      <point x="801" y="194"/>
      <point x="964" y="333"/>
      <point x="1112" y="447" type="curve"/>
      <point x="1112" y="-21" type="line"/>
      <point x="1330" y="-57" type="line"/>
      <point x="1352" y="-39" type="line"/>
      <point x="1352" y="1137" type="line"/>
      <point x="1576" y="1137" type="line"/>
      <point x="1593" y="1160" type="line"/>
      <point x="1540" y="1330" type="line"/>
      <point x="913" y="1330" type="line"/>
      <point x="896" y="1307" type="line"/>
      <point x="949" y="1137" type="line"/>
      <point x="1112" y="1137" type="line"/>
      <point x="1112" y="790" type="line"/>
      <point x="1050" y="720"/>
      <point x="969" y="686"/>
      <point x="876" y="686" type="curve" smooth="yes"/>
      <point x="829" y="686"/>
      <point x="782" y="695"/>
      <point x="738" y="710" type="curve"/>
      <point x="849" y="811"/>
      <point x="898" y="903"/>
      <point x="898" y="998" type="curve" smooth="yes"/>
      <point x="898" y="1183"/>
      <point x="712" y="1387"/>
      <point x="493" y="1387" type="curve" smooth="yes"/>
    </contour>
    <contour>
      <point x="646" y="1188"/>
      <point x="680" y="1171"/>
      <point x="680" y="1113" type="curve" smooth="yes"/>
      <point x="680" y="1043"/>
      <point x="631" y="963"/>
      <point x="524" y="869" type="curve"/>
      <point x="495" y="913"/>
      <point x="478" y="962"/>
      <point x="478" y="1013" type="curve" smooth="yes"/>
      <point x="478" y="1112"/>
      <point x="542" y="1188"/>
      <point x="613" y="1188" type="curve" smooth="yes"/>
    </contour>
  </outline>
</glyph>
<glyph name="ssadeva_viramadeva_radeva" format="1">
  <advance width="1191"/>
  <outline>
    <contour>
      <point x="180" y="1213" type="line"/>
      <point x="699" y="533" type="line"/>
      <point x="852" y="563" type="line"/>
      <point x="333" y="1243" type="line"/>
    </contour>
    <component base="padeva_viramadeva_radeva"/>
  </outline>
</glyph>
<glyph name="ta_virama_ta_viramadeva" format="1">
  <advance width="1006"/>
  <outline>
    <contour>
      <point x="114" y="923" type="line"/>
      <point x="97" y="900" type="line"/>
      <point x="150" y="720" type="line"/>
      <point x="376" y="720" type="line"/>
      <point x="369" y="691"/>
      <point x="366" y="660"/>
      <point x="366" y="627" type="curve" smooth="yes"/>
      <point x="366" y="310"/>
      <point x="655" y="-68"/>
      <point x="816" y="-68" type="curve" smooth="yes"/>
      <point x="853" y="-68"/>
      <point x="883" y="-47"/>
      <point x="893" y="-10" type="curve"/>
      <point x="707" y="141"/>
      <point x="595" y="340"/>
      <point x="595" y="506" type="curve" smooth="yes"/>
      <point x="595" y="622"/>
      <point x="649" y="718"/>
      <point x="798" y="718" type="curve" smooth="yes"/>
      <point x="1250" y="718" type="line"/>
      <point x="1266" y="741" type="line"/>
      <point x="1204" y="923" type="line"/>
    </contour>
    <contour>
      <point x="-36" y="1330" type="line"/>
      <point x="-53" y="1307" type="line"/>
      <point x="0" y="1137" type="line"/>
      <point x="1067" y="1137" type="line"/>
      <point x="1084" y="1160" type="line"/>
      <point x="1031" y="1330" type="line"/>
    </contour>
  </outline>
</glyph>
<glyph name="tadeva_viramadeva_radeva" format="1">
  <advance width="1221"/>
  <outline>
    <contour>
      <point x="-36" y="1330" type="line"/>
      <point x="-53" y="1307" type="line"/>
      <point x="0" y="1137" type="line"/>
      <point x="794" y="1137" type="line"/>
      <point x="794" y="770" type="line"/>
      <point x="784" y="766" type="line"/>
      <point x="528" y="969"/>
      <point x="433" y="1019"/>
      <point x="321" y="1019" type="curve" smooth="yes"/>
      <point x="176" y="1019"/>
      <point x="94" y="931"/>
      <point x="94" y="859" type="curve" smooth="yes"/>
      <point x="94" y="787"/>
      <point x="162" y="723"/>
      <point x="274" y="665" type="curve"/>
      <point x="324" y="731"/>
      <point x="403" y="779"/>
      <point x="476" y="779" type="curve" smooth="yes"/>
      <point x="526" y="779"/>
      <point x="561" y="774"/>
      <point x="712" y="668" type="curve"/>
      <point x="534" y="551"/>
      <point x="376" y="425"/>
      <point x="231" y="296" type="curve"/>
      <point x="231" y="268" type="line"/>
      <point x="428" y="98" type="line"/>
      <point x="540" y="201"/>
      <point x="657" y="302"/>
      <point x="784" y="398" type="curve"/>
      <point x="794" y="393" type="line"/>
      <point x="794" y="-21" type="line"/>
      <point x="1012" y="-57" type="line"/>
      <point x="1034" y="-39" type="line"/>
      <point x="1034" y="1137" type="line"/>
      <point x="1257" y="1137" type="line"/>
      <point x="1274" y="1160" type="line"/>
      <point x="1221" y="1330" type="line"/>
    </contour>
  </outline>
</glyph>
<glyph name="thadeva_viramadeva_radeva" format="1">
  <advance width="1401"/>
  <outline>
    <contour>
      <point x="182" y="1387"/>
      <point x="78" y="1315"/>
      <point x="78" y="1182" type="curve" smooth="yes"/>
      <point x="78" y="1014"/>
      <point x="244" y="886"/>
      <point x="359" y="886" type="curve" smooth="yes"/>
      <point x="412" y="886"/>
      <point x="443" y="913"/>
      <point x="459" y="932" type="curve"/>
      <point x="351" y="969"/>
      <point x="308" y="1026"/>
      <point x="308" y="1086" type="curve" smooth="yes"/>
      <point x="308" y="1154"/>
      <point x="363" y="1200"/>
      <point x="435" y="1200" type="curve" smooth="yes"/>
      <point x="512" y="1200"/>
      <point x="545" y="1146"/>
      <point x="545" y="1065" type="curve" smooth="yes"/>
      <point x="545" y="917"/>
      <point x="435" y="801"/>
      <point x="163" y="724" type="curve"/>
      <point x="151" y="698" type="line"/>
      <point x="252" y="493"/>
      <point x="399" y="361"/>
      <point x="544" y="291" type="curve"/>
      <point x="225" y="90" type="line"/>
      <point x="225" y="63" type="line"/>
      <point x="398" y="-74" type="line"/>
      <point x="965" y="283" type="line"/>
      <point x="974" y="277" type="line"/>
      <point x="974" y="-21" type="line"/>
      <point x="1191" y="-57" type="line"/>
      <point x="1213" y="-39" type="line"/>
      <point x="1214" y="1137" type="line"/>
      <point x="1437" y="1137" type="line"/>
      <point x="1454" y="1160" type="line"/>
      <point x="1401" y="1330" type="line"/>
      <point x="764" y="1330" type="line"/>
      <point x="747" y="1307" type="line"/>
      <point x="800" y="1137" type="line"/>
      <point x="974" y="1137" type="line"/>
      <point x="974" y="567" type="line"/>
      <point x="848" y="477"/>
      <point x="759" y="441"/>
      <point x="674" y="441" type="curve" smooth="yes"/>
      <point x="572" y="441"/>
      <point x="483" y="475"/>
      <point x="414" y="539" type="curve"/>
      <point x="652" y="622"/>
      <point x="765" y="754"/>
      <point x="765" y="925" type="curve" smooth="yes"/>
      <point x="765" y="1165"/>
      <point x="542" y="1387"/>
      <point x="313" y="1387" type="curve" smooth="yes"/>
    </contour>
  </outline>
</glyph>
<glyph name="ttadeva_viramadeva_yadeva" format="1">
  <advance width="2328"/>
  <outline>
    <contour>
      <point x="-36" y="1330" type="line"/>
      <point x="-53" y="1307" type="line"/>
      <point x="0" y="1137" type="line"/>
      <point x="638" y="1137" type="line"/>
      <point x="638" y="973" type="line" smooth="yes"/>
      <point x="638" y="960"/>
      <point x="631" y="953"/>
      <point x="618" y="953" type="curve" smooth="yes"/>
      <point x="507" y="953" type="line" smooth="yes"/>
      <point x="215" y="953"/>
      <point x="51" y="790"/>
      <point x="51" y="587" type="curve" smooth="yes"/>
      <point x="51" y="298"/>
      <point x="345" y="31"/>
      <point x="651" y="31" type="curve" smooth="yes"/>
      <point x="857" y="31"/>
      <point x="1006" y="141"/>
      <point x="1006" y="260" type="curve" smooth="yes"/>
      <point x="1006" y="346"/>
      <point x="931" y="416"/>
      <point x="851" y="435" type="curve"/>
      <point x="802" y="310"/>
      <point x="662" y="222"/>
      <point x="522" y="222" type="curve" smooth="yes"/>
      <point x="385" y="222"/>
      <point x="279" y="306"/>
      <point x="279" y="465" type="curve" smooth="yes"/>
      <point x="279" y="628"/>
      <point x="414" y="760"/>
      <point x="643" y="760" type="curve" smooth="yes"/>
      <point x="1341" y="760" type="line"/>
      <point x="1400" y="757"/>
      <point x="1422" y="739"/>
      <point x="1422" y="712" type="curve" smooth="yes"/>
      <point x="1422" y="662"/>
      <point x="1343" y="606"/>
      <point x="1119" y="544" type="curve"/>
      <point x="1107" y="518" type="line"/>
      <point x="1260" y="184"/>
      <point x="1488" y="51"/>
      <point x="1692" y="51" type="curve" smooth="yes"/>
      <point x="1745" y="51"/>
      <point x="1790" y="60"/>
      <point x="1832" y="75" type="curve"/>
      <point x="1841" y="69" type="line"/>
      <point x="1841" y="-101" type="line"/>
      <point x="2058" y="-137" type="line"/>
      <point x="2080" y="-119" type="line"/>
      <point x="2081" y="1137" type="line"/>
      <point x="2364" y="1137" type="line"/>
      <point x="2381" y="1160" type="line"/>
      <point x="2328" y="1330" type="line"/>
    </contour>
  </outline>
</glyph>
<glyph name="tthadeva_viraamdeva_yadeva" format="1">
  <advance width="2418"/>
  <outline>
    <contour>
      <point x="-36" y="1330" type="line"/>
      <point x="-53" y="1307" type="line"/>
      <point x="0" y="1137" type="line"/>
      <point x="618" y="1137" type="line"/>
      <point x="618" y="973" type="line" smooth="yes"/>
      <point x="618" y="960"/>
      <point x="611" y="953"/>
      <point x="598" y="953" type="curve" smooth="yes"/>
      <point x="493" y="953" type="line" smooth="yes"/>
      <point x="227" y="953"/>
      <point x="67" y="790"/>
      <point x="67" y="573" type="curve" smooth="yes"/>
      <point x="67" y="281"/>
      <point x="357" y="21"/>
      <point x="671" y="21" type="curve" smooth="yes"/>
      <point x="921" y="21"/>
      <point x="1095" y="187"/>
      <point x="1095" y="415" type="curve" smooth="yes"/>
      <point x="1095" y="545"/>
      <point x="1038" y="664"/>
      <point x="949" y="760" type="curve"/>
      <point x="1431" y="760" type="line"/>
      <point x="1489" y="757"/>
      <point x="1512" y="740"/>
      <point x="1512" y="710" type="curve" smooth="yes"/>
      <point x="1512" y="656"/>
      <point x="1439" y="594"/>
      <point x="1229" y="524" type="curve"/>
      <point x="1217" y="498" type="line"/>
      <point x="1364" y="178"/>
      <point x="1584" y="51"/>
      <point x="1782" y="51" type="curve" smooth="yes"/>
      <point x="1835" y="51"/>
      <point x="1880" y="60"/>
      <point x="1922" y="75" type="curve"/>
      <point x="1931" y="69" type="line"/>
      <point x="1931" y="-101" type="line"/>
      <point x="2148" y="-137" type="line"/>
      <point x="2170" y="-119" type="line"/>
      <point x="2171" y="1137" type="line"/>
      <point x="2454" y="1137" type="line"/>
      <point x="2471" y="1160" type="line"/>
      <point x="2418" y="1330" type="line"/>
    </contour>
    <contour>
      <point x="757" y="756"/>
      <point x="872" y="680"/>
      <point x="872" y="529" type="curve" smooth="yes"/>
      <point x="872" y="351"/>
      <point x="712" y="212"/>
      <point x="540" y="212" type="curve" smooth="yes"/>
      <point x="405" y="212"/>
      <point x="289" y="298"/>
      <point x="289" y="454" type="curve" smooth="yes"/>
      <point x="289" y="627"/>
      <point x="432" y="765"/>
      <point x="621" y="760" type="curve" smooth="yes"/>
    </contour>
  </outline>
</glyph>
<glyph name="vadeva_viramadeva" format="1">
  <advance width="681"/>
  <outline>
    <contour>
      <point x="252" y="997"/>
      <point x="89" y="859"/>
      <point x="89" y="660" type="curve" smooth="yes"/>
      <point x="89" y="404"/>
      <point x="359" y="179"/>
      <point x="613" y="179" type="curve" smooth="yes"/>
      <point x="808" y="179"/>
      <point x="952" y="312"/>
      <point x="1021" y="483" type="curve"/>
      <point x="848" y="608" type="line"/>
      <point x="803" y="492"/>
      <point x="689" y="378"/>
      <point x="537" y="378" type="curve" smooth="yes"/>
      <point x="411" y="378"/>
      <point x="318" y="455"/>
      <point x="318" y="565" type="curve" smooth="yes"/>
      <point x="318" y="685"/>
      <point x="427" y="783"/>
      <point x="573" y="783" type="curve" smooth="yes"/>
      <point x="683" y="783"/>
      <point x="793" y="727"/>
      <point x="852" y="632" type="curve"/>
      <point x="965" y="729" type="line"/>
      <point x="897" y="839"/>
      <point x="725" y="997"/>
      <point x="481" y="997" type="curve" smooth="yes"/>
    </contour>
    <contour>
      <point x="-36" y="1330" type="line"/>
      <point x="-53" y="1307" type="line"/>
      <point x="0" y="1137" type="line"/>
      <point x="766" y="1137" type="line"/>
      <point x="783" y="1160" type="line"/>
      <point x="730" y="1330" type="line"/>
    </contour>
  </outline>
</glyph>
<glyph name="yadeva_alt" format="1">
  <advance width="1298"/>
  <outline>
    <contour>
      <point x="-36" y="1330" type="line"/>
      <point x="-53" y="1307" type="line"/>
      <point x="0" y="1137" type="line"/>
      <point x="811" y="1137" type="line"/>
      <point x="811" y="540" type="line" smooth="yes"/>
      <point x="811" y="378"/>
      <point x="666" y="271"/>
      <point x="529" y="271" type="curve" smooth="yes"/>
      <point x="456" y="271"/>
      <point x="384" y="302"/>
      <point x="337" y="358" type="curve"/>
      <point x="503" y="424"/>
      <point x="592" y="518"/>
      <point x="592" y="624" type="curve" smooth="yes"/>
      <point x="592" y="777"/>
      <point x="405" y="953"/>
      <point x="256" y="953" type="curve" smooth="yes"/>
      <point x="-263" y="953" type="line"/>
      <point x="-280" y="930" type="line"/>
      <point x="-225" y="760" type="line"/>
      <point x="311" y="760" type="line"/>
      <point x="370" y="757"/>
      <point x="392" y="739"/>
      <point x="392" y="712" type="curve" smooth="yes"/>
      <point x="392" y="662"/>
      <point x="313" y="606"/>
      <point x="89" y="544" type="curve"/>
      <point x="77" y="518" type="line"/>
      <point x="230" y="184"/>
      <point x="458" y="51"/>
      <point x="662" y="51" type="curve" smooth="yes"/>
      <point x="715" y="51"/>
      <point x="760" y="60"/>
      <point x="802" y="75" type="curve"/>
      <point x="811" y="69" type="line"/>
      <point x="811" y="-101" type="line"/>
      <point x="1028" y="-137" type="line"/>
      <point x="1050" y="-119" type="line"/>
      <point x="1051" y="1137" type="line"/>
      <point x="1334" y="1137" type="line"/>
      <point x="1351" y="1160" type="line"/>
      <point x="1298" y="1330" type="line"/>
    </contour>
  </outline>
</glyph>
<glyph name="yadeva_viramadeva_radeva" format="1">
  <advance width="1348"/>
  <outline>
    <contour>
      <point x="-36" y="1330" type="line"/>
      <point x="-53" y="1307" type="line"/>
      <point x="0" y="1137" type="line"/>
      <point x="398" y="1137" type="line"/>
      <point x="412" y="1101"/>
      <point x="422" y="1057"/>
      <point x="422" y="1014" type="curve" smooth="yes"/>
      <point x="422" y="906"/>
      <point x="358" y="833"/>
      <point x="139" y="774" type="curve"/>
      <point x="127" y="748" type="line"/>
      <point x="237" y="517"/>
      <point x="381" y="379"/>
      <point x="527" y="311" type="curve"/>
      <point x="180" y="82" type="line"/>
      <point x="183" y="70" type="line"/>
      <point x="363" y="-74" type="line"/>
      <point x="912" y="293" type="line"/>
      <point x="921" y="287" type="line"/>
      <point x="921" y="-21" type="line"/>
      <point x="1138" y="-57" type="line"/>
      <point x="1160" y="-39" type="line"/>
      <point x="1161" y="1137" type="line"/>
      <point x="1384" y="1137" type="line"/>
      <point x="1401" y="1160" type="line"/>
      <point x="1348" y="1330" type="line"/>
    </contour>
    <contour>
      <point x="921" y="575" type="line"/>
      <point x="799" y="492"/>
      <point x="718" y="461"/>
      <point x="636" y="461" type="curve" smooth="yes"/>
      <point x="547" y="461"/>
      <point x="452" y="503"/>
      <point x="387" y="588" type="curve"/>
      <point x="554" y="645"/>
      <point x="642" y="735"/>
      <point x="642" y="861" type="curve" smooth="yes"/>
      <point x="642" y="940"/>
      <point x="607" y="1042"/>
      <point x="554" y="1127" type="curve"/>
      <point x="560" y="1137" type="line"/>
      <point x="921" y="1137" type="line"/>
    </contour>
  </outline>
</glyph>
